<svg width="72" height="42" viewBox="0 0 72 42" fill="none" xmlns="http://www.w3.org/2000/svg">
<path fill-rule="evenodd" clip-rule="evenodd" d="M25.4308 1.38574H22.5491L23.5912 3.34743C22.8472 1.94013 23.1015 1.38574 25.4308 1.38574Z" fill="#1F2940"/>
<path fill-rule="evenodd" clip-rule="evenodd" d="M53.0204 2.68763L50.1295 2.68555L48.6914 5.16752C49.952 3.30674 50.6911 2.68763 53.0204 2.68763Z" fill="#1F2940"/>
<path fill-rule="evenodd" clip-rule="evenodd" d="M18.3606 1.3877H21.2423L22.2717 3.31853C21.581 2.03602 20.6899 1.3877 18.3606 1.3877Z" fill="#1F2940"/>
<path fill-rule="evenodd" clip-rule="evenodd" d="M57.5872 12.332C49.6272 12.332 43.1743 18.8186 43.1743 26.82C43.1743 34.8215 49.6272 41.308 57.5872 41.308C65.5471 41.308 72 34.8215 72 26.82C72 18.8186 65.5471 12.332 57.5872 12.332ZM57.5872 14.6516C64.262 14.6516 69.6924 20.1103 69.6924 26.82C69.6924 33.5297 64.262 38.9884 57.5872 38.9884C50.9123 38.9884 45.4819 33.5297 45.4819 26.82C45.4819 20.1103 50.9123 14.6516 57.5872 14.6516Z" fill="#1F2940"/>
<path fill-rule="evenodd" clip-rule="evenodd" d="M14.4128 12.332C6.45289 12.332 0 18.8186 0 26.82C0 34.8215 6.45289 41.308 14.4128 41.308C22.3728 41.308 28.8257 34.8215 28.8257 26.82C28.8257 18.8186 22.3728 12.332 14.4128 12.332ZM14.4128 14.6516C21.0877 14.6516 26.5181 20.1103 26.5181 26.82C26.5181 33.5297 21.0877 38.9884 14.4128 38.9884C7.73797 38.9884 2.30757 33.5297 2.30757 26.82C2.30757 20.1103 7.73797 14.6516 14.4128 14.6516Z" fill="#1F2940"/>
<path d="M33.7388 34.0229L39.4641 34.0099" stroke="#1F2940" stroke-width="1.5" stroke-linecap="round"/>
<path d="M53.2359 2.1123H49.8017L35.4533 26.8195H14.4128L24.9651 7.48056L46.5201 7.60999L57.5872 26.8195" stroke="#1F2940" stroke-width="1.5" stroke-linecap="round"/>
<path d="M17.8064 0.808363H25.7827" stroke="#1F2940" stroke-width="1.25" stroke-linecap="round"/>
<path d="M35.4531 26.8199L21.7422 1.10156" stroke="#1F2940" stroke-width="1.25" stroke-linecap="round"/>
<path d="M35.4019 26.7686L36.5891 33.9435" stroke="#1F2940" stroke-width="1.5" stroke-linecap="round"/>
<path d="M53.2153 2.1123C54.5436 2.1123 55.6205 3.19463 55.6205 4.53002C55.6205 5.86519 54.5436 6.94751 53.2153 6.94751" stroke="#1F2940" stroke-width="1.5" stroke-linecap="round"/>
<path fill-rule="evenodd" clip-rule="evenodd" d="M16.2997 26.8196C16.2997 27.8671 15.4549 28.7163 14.4128 28.7163C13.3707 28.7163 12.5259 27.8671 12.5259 26.8196C12.5259 25.7721 13.3707 24.9229 14.4128 24.9229C15.4549 24.9229 16.2997 25.7721 16.2997 26.8196Z" fill="#1F2940"/>
<path fill-rule="evenodd" clip-rule="evenodd" d="M39.1088 26.8202C39.1088 28.8732 37.4529 30.5378 35.4105 30.5378C33.3681 30.5378 31.7122 28.8732 31.7122 26.8202C31.7122 24.7671 33.3681 23.1025 35.4105 23.1025C37.4529 23.1025 39.1088 24.7671 39.1088 26.8202Z" fill="#1F2940"/>
</svg>
