<svg width="44" height="53" viewBox="0 0 44 53" fill="none" xmlns="http://www.w3.org/2000/svg">
<path fill-rule="evenodd" clip-rule="evenodd" d="M37.5558 16.9574H5.75791C4.93599 16.9574 4.25663 16.3179 4.20383 15.4946L3.79727 9.22121C3.79903 8.79545 4.06655 8.45095 4.39743 8.45095H12.8419C13.1482 8.45095 34.9264 8.49335 38.8301 8.50218C39.1592 8.50218 39.4267 8.84668 39.425 9.27068L39.1117 15.4734C39.0694 16.3055 38.3848 16.9574 37.5558 16.9574ZM36.3309 41.1679H7.35951C6.54463 41.1679 5.86879 40.5389 5.80543 39.7245L5.55903 36.495L4.51887 20.3936C4.46079 19.4926 5.17359 18.7294 6.07471 18.7294H37.3077C38.2 18.7294 38.9093 19.4785 38.8635 20.3724L37.8867 39.6838C37.8445 40.5159 37.1598 41.1679 36.3309 41.1679ZM37.4626 48.0596C37.3658 49.9641 36.1373 52.4622 34.6536 52.4622H9.11599C7.65167 52.4622 6.43199 50.003 6.31055 48.125L6.08351 44.6058C6.02543 43.7048 6.73823 42.9416 7.63759 42.9416H36.0827C36.9733 42.9416 37.6826 43.6907 37.6386 44.5846L37.4626 48.0596ZM43.165 8.21421C43.165 8.21068 43.1632 8.20891 43.1632 8.20538C43.1597 8.07995 43.0787 7.97925 42.9802 7.97925H42.9203H42.8534H0.307194H0.243834H0.187514C0.111834 7.97925 0.0467136 8.03755 0.0185536 8.12058C-0.00432636 8.17888 -0.00608636 8.24601 0.0167936 8.30431C0.0449536 8.39088 0.110074 8.45095 0.187514 8.45095H1.64831C2.95599 8.45095 2.79231 8.73008 3.43823 17.0599L3.84655 21.7963L6.00607 48.768C6.13983 50.3139 5.28447 51.9198 4.15983 52.4622H3.47519C3.39423 52.4622 3.33087 52.5257 3.33087 52.607V52.6459C3.33087 52.7254 3.39423 52.7907 3.47519 52.7907H40.1853C40.2645 52.7907 40.3296 52.7254 40.3296 52.6459V52.607C40.3296 52.5257 40.2645 52.4622 40.1853 52.4622H39.432C38.413 51.9887 37.709 50.6849 37.7987 49.2079L37.8462 48.4306L38.992 29.6827L39.7682 16.9574L39.9336 14.2721C40.0691 8.89085 40.5091 8.47921 41.845 8.45095H42.9802C43.0822 8.45095 43.165 8.34495 43.165 8.21598C43.165 8.21421 43.165 8.21421 43.165 8.21421Z" fill="#1F2840"/>
<path fill-rule="evenodd" clip-rule="evenodd" d="M21.1414 28.4567H21.3139C21.3139 28.5928 21.3139 28.7288 21.3016 28.8525H21.1045C21.1168 28.7164 21.1291 28.5928 21.1414 28.4567ZM22.0285 28.4567C22.0285 28.5804 22.0408 28.7164 22.0654 28.8525H21.8683C21.856 28.7164 21.856 28.5928 21.856 28.4567H22.0285ZM16.9174 29.31C17.4472 29.4955 18.0632 29.2358 17.7552 28.1476C17.4595 27.1229 19.3691 26.0099 20.3653 27.5292C20.4638 27.69 20.5377 27.8508 20.587 28.0115H19.9094V28.4691H20.6609C20.6733 28.6051 20.6609 28.7288 20.6363 28.8648H19.8971V29.3224H20.4761C19.7229 31.0414 18.5401 32.755 18.2568 34.6348C18.6686 35.1029 19.0822 35.5693 19.5081 36.0251C19.4571 33.7921 20.4145 31.4671 20.9813 29.3224H21.2294C20.851 31.7392 20.1347 34.2514 20.2174 36.7053C20.5501 37.0162 21.1062 37.3113 21.5726 37.3095C22.0126 37.3077 22.4561 37.0993 22.8961 36.7406C22.9701 34.2814 22.303 31.7445 21.9123 29.3224H22.1587C22.7166 31.476 23.6635 33.8274 23.6089 36.0658C24.0349 35.61 24.4502 35.1436 24.8638 34.6754C24.5857 32.7868 23.4189 31.0537 22.6638 29.3224H23.2481V28.8648H22.5072C22.4949 28.7412 22.4825 28.6051 22.4825 28.4691H23.2358V28.0115H22.5565C22.6057 27.8508 22.6797 27.69 22.7782 27.5292C23.7638 26.0099 25.6734 27.1229 25.3901 28.1476C25.0803 29.2358 25.6981 29.4832 26.2261 29.31C26.2261 29.31 25.1419 29.1493 25.772 28.3331C26.4355 27.5045 26.6573 25.305 24.9219 25.0453C23.5174 24.8351 22.1393 26.0346 22.0285 28.0115H21.8683C21.9915 26.0223 22.9014 24.7114 22.963 24.0807C23.0387 23.3157 21.9792 21.8194 21.5849 21.2876C21.1907 21.807 20.1312 23.3034 20.2051 24.0807C20.2667 24.7114 21.1907 26.0223 21.3016 28.0115H21.1414C21.0429 26.047 19.6507 24.8351 18.248 25.0453C16.5109 25.305 16.7326 27.5045 17.3733 28.3331C18.0016 29.1616 16.9174 29.31 16.9174 29.31Z" fill="#1F2840"/>
<path fill-rule="evenodd" clip-rule="evenodd" d="M43.1482 8.12691C43.12 8.04034 43.0549 7.97851 42.9774 7.97851H41.5166C40.5645 7.97851 40.216 7.19234 39.8658 3.49647C39.7672 2.4665 38.9312 1.66621 37.8981 1.66797L26.1976 1.70154H25.3018C25.7066 1.97361 26.2715 2.28631 26.6235 2.63434H37.407C38.229 2.63434 38.9083 3.27564 38.9629 4.09714L39.3677 7.21001C39.4258 7.66934 39.0966 7.97851 38.7675 7.97851H30.323C30.015 7.97851 8.23856 7.93434 4.33488 7.92727C4.00576 7.92727 3.74 7.58277 3.74 7.15877L4.05328 4.11834C4.09552 3.28624 4.78016 2.63434 5.60912 2.63434H16.4877C16.8291 2.29691 17.197 1.99304 17.5877 1.72627L16.889 1.72804L5.26592 1.75984C4.21872 1.76337 3.35808 2.59017 3.3088 3.64134C3.3088 3.64134 2.65584 7.95024 1.32 7.97851H0.18304C0.08272 7.97851 0 8.08451 0 8.21524C0 8.21877 0.00176 8.22231 0.00176 8.22407C0.00528 8.35127 0.08624 8.45021 0.18304 8.45021H42.9774C43.0531 8.45021 43.1182 8.39191 43.1464 8.30887C43.1693 8.25057 43.171 8.18521 43.1482 8.12691Z" fill="#1F2840"/>
<path fill-rule="evenodd" clip-rule="evenodd" d="M27.1794 3.3231C27.0457 3.17117 26.9084 3.02453 26.7658 2.8832C26.4138 2.53517 26.0354 2.22423 25.6306 1.9504C25.3173 1.7384 24.99 1.55113 24.6503 1.3886C23.6929 0.929267 22.6333 0.676633 21.521 0.676633H21.4999C19.9757 0.676633 18.5572 1.15187 17.3551 1.97513C16.9626 2.2419 16.5965 2.54753 16.2551 2.8832C16.1125 3.02453 15.9735 3.17117 15.8415 3.3231C15.8169 3.35137 15.7834 3.31073 15.8045 3.27717C15.8873 3.1429 15.9788 3.0104 16.0703 2.8832C16.3044 2.55813 16.5631 2.25603 16.8429 1.9769C18.0714 0.7473 19.7047 0 21.5017 0H21.521C23.3021 0 24.9266 0.738467 26.1516 1.9504C26.442 2.2366 26.7095 2.5493 26.9506 2.8832C27.0421 3.0104 27.1319 3.1429 27.2164 3.27717C27.2375 3.31073 27.2041 3.35137 27.1794 3.3231Z" fill="#1F2840"/>
</svg>
