<svg width="64" height="19" viewBox="0 0 64 19" fill="none" xmlns="http://www.w3.org/2000/svg">
<mask id="mask0_0_165" style="mask-type:alpha" maskUnits="userSpaceOnUse" x="0" y="0" width="64" height="19">
<path fill-rule="evenodd" clip-rule="evenodd" d="M0 0H63.84V19H0V0Z" fill="white"/>
</mask>
<g mask="url(#mask0_0_165)">
<path fill-rule="evenodd" clip-rule="evenodd" d="M49.2235 17.2783C47.0047 17.2783 45.2075 15.48 45.2075 13.2631C45.2075 11.0447 47.0047 9.24635 49.2235 9.24635C51.4424 9.24635 53.2395 11.0447 53.2395 13.2631C53.2395 15.48 51.4424 17.2783 49.2235 17.2783ZM10.1137 17.2783C7.89642 17.2783 6.09773 15.48 6.09773 13.2631C6.09773 11.0447 7.89642 9.24635 10.1137 9.24635C12.3326 9.24635 14.1313 11.0447 14.1313 13.2631C14.1313 15.48 12.3326 17.2783 10.1137 17.2783ZM0.463192 10.5889L2.36386 4.32506C3.66634 4.27646 9.81657 4.03132 12.7538 3.6439C13.7308 3.51496 15.0765 3.21693 16.6346 2.87167C20.3551 2.04732 25.4491 0.918487 30.5914 0.918487H30.5986C34.4906 0.918487 38.7362 1.31495 47.8158 6.10301L47.8631 6.12785L50.8196 6.21508C51.0976 6.24543 58.5566 7.12161 63.3366 12.6425C63.5022 12.8338 63.1288 13.3709 62.8287 13.8024C62.5421 14.2147 62.2476 14.6394 62.1813 15.0265L54.9784 14.8381C55.0014 14.7545 55.0233 14.67 55.0434 14.5843C55.0673 14.4772 55.0896 14.37 55.1072 14.2621C55.1621 13.9325 55.19 13.5958 55.19 13.2616C55.19 12.9306 55.1632 12.6002 55.1101 12.2791C55.0706 12.0418 55.0164 11.8053 54.9493 11.5768C54.9269 11.4999 54.903 11.4231 54.8772 11.3478C54.8501 11.2681 54.8214 11.1899 54.7923 11.1149L54.7611 11.0356C54.7351 10.9708 54.709 10.9073 54.6834 10.8526C54.6714 10.8233 54.6576 10.7923 54.6446 10.7646C54.5885 10.6427 54.5314 10.5289 54.4704 10.4181C54.1954 9.91264 53.85 9.45025 53.4504 9.05072C53.4323 9.0311 53.4111 9.01101 53.3912 8.99277C53.3584 8.95873 53.3243 8.92623 53.2903 8.89542C53.1326 8.74885 52.966 8.60949 52.7951 8.48148C52.7565 8.4525 52.7163 8.42353 52.68 8.39777C52.5144 8.27788 52.3302 8.16106 52.1312 8.04991C52.0806 8.022 52.03 7.99517 51.9792 7.9685L51.9403 7.94734C51.8329 7.89184 51.7271 7.84202 51.6285 7.80016C51.5336 7.75831 51.4387 7.71814 51.351 7.68625C51.3226 7.67445 51.2942 7.66448 51.2655 7.65421C51.2254 7.63919 51.1835 7.62416 51.1484 7.61312C51.0636 7.58307 50.9888 7.55946 50.9296 7.54444C50.7822 7.49845 50.6332 7.45997 50.4757 7.427C50.0253 7.33026 49.5602 7.28749 49.0947 7.29776L49.051 7.29807C49.0048 7.2996 48.9573 7.30129 48.9188 7.30405C48.878 7.30558 48.8369 7.30727 48.7957 7.31033C48.7819 7.31079 48.7679 7.31233 48.755 7.31432C48.7075 7.31754 48.66 7.32183 48.6144 7.32643C48.4643 7.34084 48.3137 7.36169 48.1713 7.38806C48.1184 7.3968 48.0659 7.40692 48.0228 7.41719C47.9244 7.43666 47.8273 7.45905 47.7376 7.48312C47.656 7.50213 47.5712 7.52558 47.4795 7.55425L47.4408 7.56621C47.3681 7.5889 47.2952 7.61312 47.2282 7.63857C47.1917 7.6513 47.1569 7.66387 47.1181 7.67813C47.0888 7.68947 47.0594 7.70082 47.0378 7.71002C47.0155 7.7183 46.9936 7.72734 46.9718 7.73639L46.9353 7.7511C46.893 7.76904 46.8508 7.78698 46.8142 7.804C46.7317 7.83941 46.6495 7.87805 46.569 7.91837C46.4762 7.96482 46.3853 8.01265 46.2962 8.06355C45.1307 8.7254 44.2079 9.77021 43.6972 11.0068C43.6206 11.1945 43.5514 11.3927 43.4917 11.5961C43.4071 11.8845 43.3438 12.1895 43.3033 12.503C43.2982 12.5415 43.2933 12.5798 43.291 12.6086C43.2831 12.6709 43.2783 12.7333 43.2734 12.7992C43.2699 12.8351 43.268 12.8702 43.266 12.9054L43.2634 12.9522C43.2587 13.0584 43.2555 13.1647 43.2555 13.2691C43.2555 13.3327 43.2568 13.3962 43.2582 13.4583L43.2633 13.5642C43.265 13.62 43.2683 13.6754 43.2726 13.7195C43.2742 13.7483 43.2768 13.7759 43.2811 13.815C43.2872 13.8808 43.2933 13.9464 43.3022 14.0123L43.303 14.0194C43.3114 14.0908 43.3212 14.1623 43.3333 14.2247C43.3461 14.3062 43.3605 14.3861 43.3774 14.4698C43.3853 14.5084 43.3936 14.5474 43.402 14.5808C43.4056 14.5971 43.4096 14.6136 43.4134 14.6299L16.0343 14.0068C16.0462 13.9118 16.0576 13.8162 16.0646 13.7154L16.0665 13.6922C16.0692 13.6612 16.0708 13.6295 16.0721 13.6001C16.0754 13.5515 16.077 13.503 16.0787 13.4512C16.0803 13.3897 16.0818 13.3264 16.0818 13.2616C16.0818 12.9597 16.0586 12.6548 16.0129 12.3527C15.9972 12.2548 15.9798 12.1568 15.9607 12.0611C15.8829 11.6818 15.7659 11.3049 15.6124 10.9387C15.5802 10.8636 15.5468 10.7897 15.5124 10.7168L15.4879 10.6642C15.4552 10.5992 15.4227 10.5345 15.3887 10.471L15.3605 10.4175C15.3247 10.3525 15.2883 10.2882 15.2507 10.2251L15.2169 10.1676C15.0681 9.92368 14.9003 9.68819 14.718 9.46788C14.6574 9.39444 14.5951 9.32116 14.5315 9.2511C14.4677 9.18088 14.4009 9.11097 14.3337 9.04382L14.3105 9.02052C14.2836 8.99308 14.2561 8.96548 14.2319 8.94371C14.2015 8.91443 14.171 8.88683 14.1405 8.85908L14.1279 8.84758C14.0247 8.75207 13.9132 8.65779 13.8024 8.57239C13.7657 8.54204 13.7275 8.51321 13.6854 8.48148C13.6457 8.45174 13.6058 8.42199 13.5656 8.3947C13.5198 8.36189 13.4736 8.32909 13.4382 8.30778C13.4005 8.28095 13.3627 8.2558 13.3358 8.24063L13.3192 8.22928L13.3186 8.12564H13.1531C13.0496 8.06355 12.9418 8.00437 12.8331 7.94934C12.8325 7.94918 12.832 7.94887 12.8316 7.94857L12.831 7.86041H12.6529C12.5792 7.82577 12.506 7.79357 12.4369 7.76521C12.3915 7.7442 12.3444 7.72642 12.3051 7.71201C12.2145 7.67491 12.121 7.64057 12.0301 7.61067C11.9742 7.59151 11.9186 7.57403 11.8617 7.55625L11.8376 7.54873C11.806 7.53892 11.7734 7.5288 11.7542 7.52451C11.7042 7.50887 11.6525 7.49492 11.6084 7.48496C11.5575 7.47131 11.5064 7.45782 11.4662 7.45046C11.3848 7.42976 11.3015 7.41198 11.2184 7.39757C11.1974 7.39266 11.1756 7.38883 11.1554 7.38576C11.1097 7.37764 11.066 7.37105 11.0241 7.36507C10.9429 7.35203 10.8601 7.34069 10.7872 7.33379C10.7398 7.32704 10.6938 7.32337 10.6507 7.32045C10.5725 7.31248 10.4943 7.30619 10.4148 7.3042C10.3939 7.30236 10.3729 7.30144 10.3516 7.30052L10.306 7.29899C10.1907 7.29623 10.0772 7.29439 9.95795 7.29792C9.90627 7.29945 9.85475 7.30114 9.81779 7.30389C9.7862 7.30389 9.75262 7.30558 9.71628 7.30757C9.69558 7.30911 9.67365 7.31095 9.65249 7.31371C9.6002 7.31555 9.55036 7.32061 9.5131 7.32582C9.46219 7.32904 9.41128 7.33563 9.36037 7.34406C9.30778 7.34897 9.25564 7.35694 9.2101 7.36415C9.1575 7.37089 9.10506 7.37932 9.0612 7.38806C9.01674 7.39542 8.97227 7.40385 8.92872 7.41336L8.89253 7.41428L8.87014 7.42547C8.83472 7.43314 8.80022 7.4408 8.77078 7.44831C8.72247 7.45828 8.67248 7.47008 8.62403 7.48465C8.57404 7.49615 8.52589 7.50903 8.48464 7.5216C8.37991 7.5495 8.28131 7.58246 8.20587 7.60852C8.17688 7.61742 8.14852 7.62769 8.12015 7.63796L8.06264 7.65835C7.99671 7.68242 7.93246 7.70802 7.87158 7.73332C7.83708 7.74666 7.80365 7.76092 7.76976 7.77548L7.74599 7.78544C7.65629 7.82393 7.56843 7.86532 7.47979 7.90901C6.16489 8.56135 5.13551 9.66811 4.58072 11.0271C4.53134 11.1508 4.48519 11.277 4.44179 11.4053C4.39702 11.5451 4.36021 11.6719 4.32924 11.7925C4.3067 11.8808 4.28584 11.971 4.26898 12.0555C4.25901 12.1016 4.24935 12.1478 4.24153 12.1933C4.23309 12.2391 4.22497 12.285 4.21899 12.3274C4.20457 12.4188 4.19184 12.5102 4.18203 12.6046L4.17099 12.7057C4.16624 12.7632 4.16148 12.8205 4.15826 12.8794L4.15796 12.893C4.15351 12.954 4.15044 13.0137 4.14891 13.073C4.14722 13.1362 4.14569 13.1996 4.14569 13.2708C4.14569 13.3298 4.14722 13.3887 4.14876 13.4468C4.15182 13.5634 4.15934 13.6869 4.17099 13.8107C4.1759 13.8702 4.18234 13.9311 4.19 13.9883L4.0477 13.9815L1.13559 12.5603V12.5241C1.13559 12.4694 1.12363 12.4243 1.11121 12.3848L0.463192 10.5889ZM6.21825 2.45957H7.57655V3.61446C7.1153 3.64191 6.65942 3.6672 6.21825 3.69051V2.45957ZM54.8317 15.2963C54.8318 15.2955 54.8321 15.2949 54.8324 15.2942L55.0793 15.3008L54.8317 15.2963ZM63.1003 16.2755L63.0831 16.2476C62.8901 15.9681 62.7565 15.7153 62.6838 15.4869C62.6461 15.3768 62.6271 15.2739 62.6271 15.181C62.6271 14.8985 62.9348 14.4557 63.2066 14.0649C63.6378 13.4445 64.084 12.8027 63.6842 12.3415C58.715 6.60173 50.9359 5.76434 50.8581 5.75668L47.9833 5.67128C38.8427 0.857622 34.544 0.458554 30.5986 0.458554H30.5914C25.3991 0.458554 20.276 1.59367 16.5351 2.42247C14.9874 2.76543 13.6507 3.06162 12.6936 3.18795C11.4969 3.34571 9.75922 3.47986 8.03658 3.58671V2.45957H9.3981V2.02831L5.39542 2.02217C5.19301 2.02217 5.01207 1.92405 4.8986 1.77228C4.8986 1.77074 4.59636 1.31372 4.59636 1.31219L3.7332 0H2.50647L4.02731 2.45957H5.75823V3.71427C4.14983 3.79614 2.81177 3.84826 2.31464 3.86666C2.13584 3.87034 1.98219 3.98885 1.93358 4.15856L0.0195745 10.467C-0.00848699 10.5544 -0.00618686 10.6464 0.0252482 10.7302L0.67557 12.5329V14.2596C0.67557 14.4174 0.766808 14.5635 0.908035 14.632L3.93423 16.0998L5.0136 16.1224H5.14256C6.13361 17.8414 7.98751 19 10.1137 19C12.1513 19 13.9392 17.9368 14.9573 16.3356L44.6647 16.9748H44.8494C45.9009 18.2134 47.4699 19 49.2235 19C50.8865 19 52.3843 18.2929 53.4318 17.1623L63.0885 17.3701C63.0925 17.3701 63.0962 17.3701 63.1001 17.3701C63.222 17.3701 63.3361 17.3174 63.4139 17.2253C63.5447 17.0721 63.5468 16.8493 63.4202 16.6974C63.303 16.5542 63.1955 16.4123 63.1003 16.2755Z" fill="#1F2840"/>
</g>
<path fill-rule="evenodd" clip-rule="evenodd" d="M33.264 6.57432L45.5999 6.84002L45.2414 6.5812C40.9379 3.4677 36.3927 1.81586 31.3451 1.53099L31.1599 1.52002L32.2838 5.79394C32.4073 6.24949 32.8021 6.56335 33.264 6.57432Z" fill="#1F2840"/>
<path fill-rule="evenodd" clip-rule="evenodd" d="M22.3565 3.74728C22.3565 3.75464 22.3565 3.76215 22.3551 3.76951V3.80424C22.3552 4.80355 23.0167 5.99582 26.1653 5.99582L31.92 6.08002L30.5546 1.54937L30.4631 1.54319C30.4208 1.53951 26.1891 1.24394 21.2867 2.87412C21.2826 2.8753 21.28 2.87898 21.28 2.88148C21.3251 2.87412 21.3715 2.87029 21.4178 2.87029C21.9362 2.87029 22.3565 3.26242 22.3565 3.74728Z" fill="#1F2840"/>
<path fill-rule="evenodd" clip-rule="evenodd" d="M33.4399 8.3601H35.7199V7.6001H33.4399V8.3601Z" fill="#1F2840"/>
</svg>
