<svg width="61" height="43" viewBox="0 0 61 43" fill="none" xmlns="http://www.w3.org/2000/svg">
<path fill-rule="evenodd" clip-rule="evenodd" d="M51.1543 8.74292V31.7744C51.1543 41.7818 55.9618 41.7818 55.9618 31.7744V8.74292H51.1543Z" fill="#1F2840"/>
<path fill-rule="evenodd" clip-rule="evenodd" d="M29.5898 9.17122H55.9616V8.74288H29.5898V9.17122Z" fill="#1F2840"/>
<path fill-rule="evenodd" clip-rule="evenodd" d="M10.4495 8.74292V31.7744C10.4495 41.7818 5.64209 41.7818 5.64209 31.7744V8.74292H10.4495Z" fill="#1F2840"/>
<path fill-rule="evenodd" clip-rule="evenodd" d="M5.64136 9.17122H32.0131V8.74288H5.64136V9.17122Z" fill="#1F2840"/>
<path fill-rule="evenodd" clip-rule="evenodd" d="M10.4496 42.6593V24.7201C10.4496 9.37567 10.7612 9.3062 13.8211 9.3062H36.7769C37.2764 9.3062 37.2764 8.7439 36.7769 8.7439C35.0276 8.7439 9.01361 8.93078 8.07718 8.93078C7.26604 8.93078 3.70826 8.7439 2.02334 8.7439C1.5238 8.7439 1.5238 9.3062 2.02334 9.3062H3.33401C6.3939 9.3062 5.64212 9.37567 5.64212 24.7201V42.6593H10.4496Z" fill="#1F2840"/>
<path fill-rule="evenodd" clip-rule="evenodd" d="M5.64136 42.6583H55.9614V42.2299H5.64136V42.6583Z" fill="#1F2840"/>
<path fill-rule="evenodd" clip-rule="evenodd" d="M51.1543 42.6593V24.7201C51.1543 9.37567 50.8427 9.3062 47.7828 9.3062H24.827C24.3275 9.3062 24.3275 8.7439 24.827 8.7439C26.5763 8.7439 52.5903 8.93078 53.5267 8.93078C54.3379 8.93078 57.8956 8.7439 59.5806 8.7439C60.0801 8.7439 60.0801 9.3062 59.5806 9.3062H58.2699C55.21 9.3062 55.9618 9.37567 55.9618 24.7201V42.6593H51.1543Z" fill="#1F2840"/>
<path fill-rule="evenodd" clip-rule="evenodd" d="M2.21729 9.17122H59.9546V8.74288H2.21729V9.17122Z" fill="#1F2840"/>
<path fill-rule="evenodd" clip-rule="evenodd" d="M53.9796 23.0444L41.219 26.2446C34.5255 27.9249 27.5237 27.9249 20.8302 26.2446L7.71189 22.9551L7.62451 23.3752L28.2623 28.5517C30.0758 29.0065 31.9734 29.0065 33.7869 28.5517L53.9334 23.4975L53.9796 23.0444Z" fill="#1F2840"/>
<path fill-rule="evenodd" clip-rule="evenodd" d="M41.6014 5.13074L40.9239 5.16382L40.4243 4.75366L40.3485 4.86943C40.6139 4.99016 40.7722 5.00835 40.7722 5.2432V8.95774C40.7722 9.06524 40.8596 9.15289 40.9667 9.15289H40.9717C41.0772 9.15289 41.1629 9.06855 41.1662 8.96105L41.2618 5.34739C41.2618 5.22666 41.6014 5.13074 41.6014 5.13074Z" fill="#1F2840"/>
<path fill-rule="evenodd" clip-rule="evenodd" d="M18.4955 6.32262C20.7707 4.15608 24.335 2.19462 28.4583 1.77123C28.5094 1.76627 28.5605 1.76131 28.6116 1.75635C28.6941 1.74808 28.7749 1.74146 28.8573 1.73485C28.9133 1.72989 28.971 1.72492 29.0271 1.72162C29.248 1.70342 29.4706 1.69019 29.6948 1.68027C29.7113 1.67862 29.7294 1.67862 29.7476 1.67696C30.0855 1.66208 30.4284 1.65381 30.773 1.65381H30.8175C31.1374 1.65381 31.4539 1.66042 31.7688 1.67365C31.7836 1.67365 31.8001 1.67531 31.815 1.67531C32.0276 1.68523 32.2403 1.69681 32.4513 1.71169C32.4893 1.715 32.5255 1.71831 32.5634 1.72162C32.6492 1.72823 32.7333 1.73485 32.8173 1.74146C32.8652 1.74642 32.9146 1.75139 32.9624 1.75469C37.1566 2.15327 40.7886 4.12631 43.095 6.32262C43.1395 6.36396 43.0653 6.41854 43.0142 6.38215C41.4777 5.327 39.6279 4.46865 37.5622 3.87658C35.4964 3.2845 33.2163 2.95539 30.8208 2.95539H30.7697C25.9771 2.95539 21.651 4.27019 18.5763 6.38215C18.5236 6.41854 18.451 6.36396 18.4955 6.32262Z" fill="#1F2840"/>
<path fill-rule="evenodd" clip-rule="evenodd" d="M19.9715 5.13074L20.6491 5.16382L21.1487 4.75366L21.2245 4.86943C20.9591 4.99016 20.8008 5.00835 20.8008 5.2432V8.95774C20.8008 9.06524 20.7134 9.15289 20.6062 9.15289H20.6013C20.4958 9.15289 20.4101 9.06855 20.4068 8.96105L20.3111 5.34739C20.3111 5.22666 19.9715 5.13074 19.9715 5.13074Z" fill="#1F2840"/>
</svg>
