<svg width="44" height="44" viewBox="0 0 44 44" fill="none" xmlns="http://www.w3.org/2000/svg">
<path fill-rule="evenodd" clip-rule="evenodd" d="M1.04671 13.2939C1.19044 12.8304 1.31218 12.3713 1.41484 11.9211C2.33298 7.8628 1.63631 4.37653 0.933777 2.24107C0.882443 2.08267 0.83111 1.9316 0.779777 1.78787C0.753377 1.71747 0.726977 1.65 0.702043 1.58253C0.499643 1.05013 0.313377 0.635067 0.18431 0.363733C0.168177 0.33 0.152043 0.2992 0.137377 0.269867C0.0801766 0.152533 0.0391099 0.0718667 0.0171099 0.0308C0.00684323 0.0102667 0.000976562 0 0.000976562 0C0.000976562 0 0.0112432 0.00586667 0.0317766 0.0176C0.0713766 0.0381333 0.152043 0.0806667 0.269377 0.137867C0.328043 0.1672 0.39551 0.199467 0.473243 0.234667C0.740177 0.359333 1.11564 0.525067 1.58351 0.702533C1.64951 0.727467 1.71844 0.753867 1.78884 0.7788C1.93111 0.830133 2.08218 0.882933 2.24058 0.934267C4.37604 1.6368 7.86231 2.33347 11.9206 1.41533C12.3723 1.31267 13.2934 1.0472 13.2934 1.0472C11.5862 1.99027 9.03124 2.47133 8.00604 3.49653C7.93271 3.57427 7.86671 3.65493 7.81391 3.73853C7.54404 4.18587 7.62911 4.76667 8.30231 5.58507L18.8535 18.854L5.58458 8.3028C4.76764 7.62813 4.18538 7.54307 3.73804 7.81293C3.65444 7.8672 3.57378 7.93173 3.49751 8.00653C2.47084 9.03027 1.95164 11.6923 1.04671 13.2939Z" fill="#1F2840"/>
<path fill-rule="evenodd" clip-rule="evenodd" d="M42.393 30.1458C42.2492 30.6093 42.1275 31.0684 42.0248 31.5186C41.1067 35.5769 41.8034 39.0632 42.5059 41.1986C42.5572 41.357 42.6086 41.5081 42.6599 41.6518C42.6863 41.7222 42.7127 41.7897 42.7376 41.8572C42.94 42.3896 43.1263 42.8046 43.2554 43.076C43.2715 43.1097 43.2876 43.1405 43.3023 43.1698C43.3595 43.2872 43.4006 43.3678 43.4226 43.4089C43.4328 43.4294 43.4387 43.4397 43.4387 43.4397C43.4387 43.4397 43.4284 43.4338 43.4079 43.4221C43.3683 43.4016 43.2876 43.359 43.1703 43.3018C43.1116 43.2725 43.0442 43.2402 42.9664 43.205C42.6995 43.0804 42.324 42.9146 41.8562 42.7372C41.7902 42.7122 41.7212 42.6858 41.6508 42.6609C41.5086 42.6096 41.3575 42.5568 41.1991 42.5054C39.0636 41.8029 35.5774 41.1062 31.5191 42.0244C31.0674 42.127 30.1463 42.3925 30.1463 42.3925C31.8535 41.4494 34.4084 40.9684 35.4336 39.9432C35.507 39.8654 35.573 39.7848 35.6258 39.7012C35.8956 39.2538 35.8106 38.673 35.1374 37.8546L24.5862 24.5857L37.8551 35.1369C38.672 35.8116 39.2543 35.8966 39.7016 35.6268C39.7852 35.5725 39.8659 35.508 39.9422 35.4332C40.9688 34.4094 41.488 31.7474 42.393 30.1458Z" fill="#1F2840"/>
<path fill-rule="evenodd" clip-rule="evenodd" d="M30.1458 1.04671C30.6093 1.19044 31.0684 1.31218 31.5186 1.41484C35.5769 2.33298 39.0632 1.63631 41.1986 0.933777C41.357 0.882443 41.5081 0.83111 41.6518 0.779777C41.7222 0.753377 41.7897 0.726977 41.8572 0.702043C42.3896 0.499643 42.8046 0.313377 43.076 0.18431C43.1097 0.168177 43.1405 0.152043 43.1698 0.137377C43.2872 0.0801766 43.3678 0.0391099 43.4089 0.0171099C43.4294 0.00684323 43.4397 0.000976562 43.4397 0.000976562C43.4397 0.000976562 43.4338 0.0112432 43.4221 0.0317766C43.4016 0.0713766 43.359 0.152043 43.3018 0.269377C43.2725 0.328043 43.2402 0.39551 43.205 0.473243C43.0804 0.740177 42.9146 1.11564 42.7372 1.58351C42.7122 1.64951 42.6858 1.71844 42.6609 1.78884C42.6096 1.93111 42.5568 2.08218 42.5054 2.24058C41.8029 4.37604 41.1062 7.86231 42.0244 11.9206C42.127 12.3723 42.3925 13.2934 42.3925 13.2934C41.4494 11.5862 40.9684 9.03124 39.9432 8.00604C39.8654 7.93271 39.7848 7.86671 39.7012 7.81391C39.2538 7.54404 38.673 7.62911 37.8546 8.30231L24.5857 18.8535L35.1369 5.58458C35.8116 4.76764 35.8966 4.18538 35.6268 3.73804C35.5725 3.65444 35.508 3.57378 35.4332 3.49751C34.4094 2.47084 31.7474 1.95164 30.1458 1.04671Z" fill="#1F2840"/>
<path fill-rule="evenodd" clip-rule="evenodd" d="M13.2939 42.3932C12.8304 42.2495 12.3713 42.1278 11.9211 42.0251C7.8628 41.107 4.37653 41.8036 2.24107 42.5062C2.08267 42.5575 1.9316 42.6088 1.78787 42.6602C1.71747 42.6866 1.65 42.713 1.58253 42.7379C1.05013 42.9403 0.635067 43.1266 0.363733 43.2556C0.33 43.2718 0.2992 43.2879 0.269867 43.3026C0.152533 43.3598 0.0718667 43.4008 0.0308 43.4228C0.0102667 43.4331 0 43.439 0 43.439C0 43.439 0.00586667 43.4287 0.0176 43.4082C0.0381333 43.3686 0.0806667 43.2879 0.137867 43.1706C0.1672 43.1119 0.199467 43.0444 0.234667 42.9667C0.359333 42.6998 0.525067 42.3243 0.702533 41.8564C0.727467 41.7904 0.753867 41.7215 0.7788 41.6511C0.830133 41.5088 0.882933 41.3578 0.934267 41.1994C1.6368 39.0639 2.33347 35.5776 1.41533 31.5194C1.31267 31.0676 1.0472 30.1466 1.0472 30.1466C1.99027 31.8538 2.47133 34.4087 3.49653 35.4339C3.57427 35.5072 3.65493 35.5732 3.73853 35.626C4.18587 35.8959 4.76667 35.8108 5.58507 35.1376L18.854 24.5864L8.3028 37.8554C7.62813 38.6723 7.54307 39.2546 7.81293 39.7019C7.8672 39.7855 7.93173 39.8662 8.00653 39.9424C9.03027 40.9691 11.6923 41.4883 13.2939 42.3932Z" fill="#1F2840"/>
<path fill-rule="evenodd" clip-rule="evenodd" d="M1.04671 13.2939C1.19044 12.8304 1.31218 12.3713 1.41484 11.9211C2.33298 7.8628 1.63631 4.37653 0.933777 2.24107C0.882443 2.08267 0.83111 1.9316 0.779777 1.78787C0.753377 1.71747 0.726977 1.65 0.702043 1.58253C0.499643 1.05013 0.313377 0.635067 0.18431 0.363733C0.168177 0.33 0.152043 0.2992 0.137377 0.269867C0.0801766 0.152533 0.0391099 0.0718667 0.0171099 0.0308C0.00684323 0.0102667 0.000976562 0 0.000976562 0C0.000976562 0 0.0112432 0.00586667 0.0317766 0.0176C0.0713766 0.0381333 0.152043 0.0806667 0.269377 0.137867C0.328043 0.1672 0.39551 0.199467 0.473243 0.234667C0.740177 0.359333 1.11564 0.525067 1.58351 0.702533C1.64951 0.727467 1.71844 0.753867 1.78884 0.7788C1.93111 0.830133 2.08218 0.882933 2.24058 0.934267C4.37604 1.6368 7.86231 2.33347 11.9206 1.41533C12.3723 1.31267 13.2934 1.0472 13.2934 1.0472C11.5862 1.99027 9.03124 2.47133 8.00604 3.49653C7.93271 3.57427 7.86671 3.65493 7.81391 3.73853C7.54404 4.18587 7.62911 4.76667 8.30231 5.58507L18.8535 18.854L5.58458 8.3028C4.76764 7.62813 4.18538 7.54307 3.73804 7.81293C3.65444 7.8672 3.57378 7.93173 3.49751 8.00653C2.47084 9.03027 1.95164 11.6923 1.04671 13.2939Z" fill="#1F2840"/>
<path fill-rule="evenodd" clip-rule="evenodd" d="M42.0248 31.5186C41.1067 35.5769 41.8034 39.0632 42.5059 41.1986C42.5572 41.357 42.6086 41.5081 42.6599 41.6518C42.6863 41.7222 42.7127 41.7897 42.7376 41.8572C42.94 42.3896 43.1263 42.8046 43.2554 43.076C43.2715 43.1097 43.2876 43.1405 43.3023 43.1698C43.3595 43.2872 43.4006 43.3678 43.4226 43.4089C43.4328 43.4294 43.4387 43.4397 43.4387 43.4397C43.4387 43.4397 43.4284 43.4338 43.4079 43.4221C43.3683 43.4016 43.2876 43.359 43.1703 43.3018C43.1116 43.2725 43.0442 43.2402 42.9664 43.205C42.6995 43.0804 42.324 42.9146 41.8562 42.7372C41.7902 42.7122 41.7212 42.6858 41.6508 42.6609C41.5086 42.6096 41.3575 42.5568 41.1991 42.5054C39.0636 41.8029 35.5774 41.1062 31.5191 42.0244C31.0674 42.127 30.1463 42.3925 30.1463 42.3925C31.8535 41.4494 34.4084 40.9684 35.4336 39.9432C35.507 39.8654 35.573 39.7848 35.6258 39.7012C35.8956 39.2538 35.8106 38.673 35.1374 37.8546L24.5862 24.5857L37.8551 35.1369C38.672 35.8116 39.2543 35.8966 39.7016 35.6268C39.7852 35.5725 39.8659 35.508 39.9422 35.4332C40.9688 34.4094 41.488 31.7474 42.393 30.1458C42.2492 30.6093 42.1275 31.0684 42.0248 31.5186Z" fill="#1F2840"/>
<path fill-rule="evenodd" clip-rule="evenodd" d="M30.1458 1.04671C30.6093 1.19044 31.0684 1.31218 31.5186 1.41484C35.5769 2.33298 39.0632 1.63631 41.1986 0.933777C41.357 0.882443 41.5081 0.83111 41.6518 0.779777C41.7222 0.753377 41.7897 0.726977 41.8572 0.702043C42.3896 0.499643 42.8046 0.313377 43.076 0.18431C43.1097 0.168177 43.1405 0.152043 43.1698 0.137377C43.2872 0.0801766 43.3678 0.0391099 43.4089 0.0171099C43.4294 0.00684323 43.4397 0.000976562 43.4397 0.000976562C43.4397 0.000976562 43.4338 0.0112432 43.4221 0.0317766C43.4016 0.0713766 43.359 0.152043 43.3018 0.269377C43.2725 0.328043 43.2402 0.39551 43.205 0.473243C43.0804 0.740177 42.9146 1.11564 42.7372 1.58351C42.7122 1.64951 42.6858 1.71844 42.6609 1.78884C42.6096 1.93111 42.5568 2.08218 42.5054 2.24058C41.8029 4.37604 41.1062 7.86231 42.0244 11.9206C42.127 12.3723 42.3925 13.2934 42.3925 13.2934C41.4494 11.5862 40.9684 9.03124 39.9432 8.00604C39.8654 7.93271 39.7848 7.86671 39.7012 7.81391C39.2538 7.54404 38.673 7.62911 37.8546 8.30231L24.5857 18.8535L35.1369 5.58458C35.8116 4.76764 35.8966 4.18538 35.6268 3.73804C35.5725 3.65444 35.508 3.57378 35.4332 3.49751C34.4094 2.47084 31.7474 1.95164 30.1458 1.04671Z" fill="#1F2840"/>
<path fill-rule="evenodd" clip-rule="evenodd" d="M13.2939 42.3932C12.8304 42.2495 12.3713 42.1278 11.9211 42.0251C7.8628 41.107 4.37653 41.8036 2.24107 42.5062C2.08267 42.5575 1.9316 42.6088 1.78787 42.6602C1.71747 42.6866 1.65 42.713 1.58253 42.7379C1.05013 42.9403 0.635067 43.1266 0.363733 43.2556C0.33 43.2718 0.2992 43.2879 0.269867 43.3026C0.152533 43.3598 0.0718667 43.4008 0.0308 43.4228C0.0102667 43.4331 0 43.439 0 43.439C0 43.439 0.00586667 43.4287 0.0176 43.4082C0.0381333 43.3686 0.0806667 43.2879 0.137867 43.1706C0.1672 43.1119 0.199467 43.0444 0.234667 42.9667C0.359333 42.6998 0.525067 42.3243 0.702533 41.8564C0.727467 41.7904 0.753867 41.7215 0.7788 41.6511C0.830133 41.5088 0.882933 41.3578 0.934267 41.1994C1.6368 39.0639 2.33347 35.5776 1.41533 31.5194C1.31267 31.0676 1.0472 30.1466 1.0472 30.1466C1.99027 31.8538 2.47133 34.4087 3.49653 35.4339C3.57427 35.5072 3.65493 35.5732 3.73853 35.626C4.18587 35.8959 4.76667 35.8108 5.58507 35.1376L18.854 24.5864L8.3028 37.8554C7.62813 38.6723 7.54307 39.2546 7.81293 39.7019C7.8672 39.7855 7.93173 39.8662 8.00653 39.9424C9.03027 40.9691 11.6923 41.4883 13.2939 42.3932Z" fill="#1F2840"/>
</svg>
