<svg width="63" height="49" viewBox="0 0 63 49" fill="none" xmlns="http://www.w3.org/2000/svg">
<mask id="mask0_0_172" style="mask-type:alpha" maskUnits="userSpaceOnUse" x="0" y="0" width="63" height="49">
<path fill-rule="evenodd" clip-rule="evenodd" d="M0 0H63V48.9176H0V0Z" fill="white"/>
</mask>
<g mask="url(#mask0_0_172)">
<path fill-rule="evenodd" clip-rule="evenodd" d="M50.2852 42.3707C51.9201 42.4654 53.2274 43.775 53.3125 45.4076C53.2162 47.0368 51.9014 48.3391 50.2628 48.4225H12.4799C10.864 48.3149 9.5742 47.0236 9.48012 45.4102V45.388C9.57532 43.7577 10.8907 42.4543 12.5302 42.3707H50.2852ZM53.3127 3.50741V3.53916C53.2205 5.12018 51.9797 6.3902 50.4095 6.54208H12.4607C10.8472 6.42492 9.56321 5.12557 9.48012 3.50741V3.48197C9.5701 1.93901 10.7539 0.690341 12.2705 0.490183H50.2628C51.9024 0.573737 53.2177 1.87718 53.3127 3.50741ZM12.4797 41.8806C10.864 41.7729 9.5742 40.4815 9.48012 38.8683V10.0239C9.56917 8.49669 10.7293 7.25656 12.2233 7.03709H50.3131C51.929 7.14479 53.2186 8.43616 53.3127 10.0495V38.8633C53.2177 40.4936 51.9024 41.797 50.2628 41.8806H12.4797ZM2.60087 42.3707C4.22883 42.4651 5.53112 43.7642 5.62614 45.3872V45.5326C5.47151 47.1025 4.18598 48.3411 2.58969 48.4225H0.245927C0.109922 48.4225 0 48.532 0 48.6675C0 48.6685 0.000558925 48.6692 0.000558925 48.6701C0.000558925 48.6709 0 48.6716 0 48.6726C0 48.8081 0.109922 48.9176 0.245927 48.9176H62.7539C62.8901 48.9176 63 48.8081 63 48.6726C63 48.6716 62.9994 48.6709 62.9994 48.6701C62.9994 48.6692 63 48.6685 63 48.6675C63 48.532 62.8901 48.4225 62.7539 48.4225H60.4001C59.0691 48.3547 57.952 47.4829 57.5278 46.2851C57.4359 46.0168 57.3776 45.7331 57.3604 45.4381V45.5022C57.3584 45.4791 57.3547 45.4567 57.3532 45.4336V45.3503C57.4596 43.7657 58.7194 42.4989 60.3037 42.3707H62.7539C62.8901 42.3707 63 42.2612 63 42.1256C63 41.9901 62.8901 41.8806 62.7539 41.8806H60.4001C58.7701 41.7976 57.4618 40.5084 57.3532 38.8916V9.99323C57.3547 9.97002 57.3584 9.94756 57.3604 9.92453V10.0543C57.4555 8.42409 58.7708 7.12065 60.4103 7.03709H62.7539C62.8901 7.03709 63 6.92755 63 6.792C63 6.79107 62.9994 6.79052 62.9994 6.78959C62.9994 6.78866 63 6.78792 63 6.78718C63 6.65145 62.8901 6.54208 62.7539 6.54208H60.3306C58.7274 6.42567 57.4506 5.14154 57.3532 3.53767V3.45115C57.4553 1.92991 58.6197 0.699625 60.1148 0.490183H62.7539C62.8901 0.490183 63 0.380634 63 0.245091C63 0.109548 62.8901 0 62.7539 0H0.245927C0.109922 0 0 0.109548 0 0.245091C0 0.380634 0.109922 0.490183 0.245927 0.490183H2.87437C4.33689 0.694797 5.48082 1.87699 5.62614 3.35237V3.76327C5.43536 5.23883 4.2415 6.39763 2.74656 6.54208H0.245927C0.109922 6.54208 0 6.65145 0 6.78718C0 6.78792 0.000558925 6.78866 0.000558925 6.78959C0.000558925 6.79052 0 6.79107 0 6.792C0 6.92755 0.109922 7.03709 0.245927 7.03709H2.59993C3.93073 7.10487 5.04803 7.97661 5.47225 9.1744C5.55069 9.40371 5.60155 9.64509 5.62614 9.89427V38.9907C5.47151 40.5604 4.18598 41.7992 2.58969 41.8806H0.245927C0.109922 41.8806 0 41.9901 0 42.1256C0 42.2612 0.109922 42.3707 0.245927 42.3707H2.60087Z" fill="#1F2840"/>
</g>
</svg>
