<svg width="31" height="53" viewBox="0 0 31 53" fill="none" xmlns="http://www.w3.org/2000/svg">
<mask id="mask0_0_139" style="mask-type:alpha" maskUnits="userSpaceOnUse" x="0" y="0" width="31" height="53">
<path fill-rule="evenodd" clip-rule="evenodd" d="M0 0H31V53H0V0Z" fill="white"/>
</mask>
<g mask="url(#mask0_0_139)">
<path fill-rule="evenodd" clip-rule="evenodd" d="M29.3733 23.306C31.574 20.5668 32.3098 13.2905 26.5603 12.4306C21.9088 11.7352 17.3433 15.7023 16.9763 22.2458H16.4452C16.8528 15.6616 19.8705 11.3248 20.0751 9.24193C20.3204 6.7063 16.8122 1.75719 15.5064 0C14.2022 1.71485 10.6957 6.66559 10.9409 9.24193C11.144 11.3248 14.2022 15.6616 14.5709 22.2458H14.0398C13.7134 15.743 9.10242 11.7352 4.45574 12.4306C-1.29372 13.2905 -0.559606 20.5668 1.5599 23.306C3.6388 26.0452 0.0494475 26.537 0.0494475 26.537C1.80515 27.1509 3.84344 26.2911 2.82186 22.692C1.84575 19.3014 8.16691 15.6209 11.4704 20.6482C11.7985 21.1807 12.0389 21.7132 12.2029 22.2458H9.95996V23.7571H12.4465C12.4871 24.2065 12.4465 24.6153 12.3653 25.0664H9.91936V26.5777H11.8391C9.33954 32.2645 5.42373 37.9351 4.48498 44.1512C5.84763 45.7032 7.22003 47.2422 8.62817 48.7534C8.46088 41.3631 11.6345 33.6781 13.5087 26.5777H14.3289C13.0767 34.5738 10.7038 42.8858 10.9767 51.0057C12.0795 52.0333 13.9261 53.0088 15.4691 53.0007C16.9275 52.9958 18.3925 52.3085 19.851 51.1197C20.0962 42.9852 17.8858 34.5901 16.5913 26.5777H17.4083C19.2582 33.7025 22.3944 41.482 22.2109 48.8886C23.6239 47.3822 24.9995 45.8384 26.3687 44.2912C25.4445 38.0426 21.5823 32.3052 19.0828 26.5777H21.0139V25.0664H18.5647C18.5241 24.6576 18.4818 24.2065 18.4818 23.7571H20.9733V22.2458H18.7271C18.8911 21.7132 19.1364 21.1807 19.4628 20.6482C22.7257 15.6209 29.0469 19.3014 28.1081 22.692C27.0865 26.2911 29.1281 27.1102 30.8805 26.537C30.8805 26.537 27.2912 26.0044 29.3733 23.306V23.306ZM14.5709 25.0257H13.918C13.9586 24.5762 13.9992 24.1658 14.0398 23.7163H14.6115C14.6115 24.1658 14.6115 24.6153 14.5709 25.0257V25.0257ZM16.4452 25.0257C16.4046 24.5762 16.4046 24.1658 16.4046 23.7163H16.9763C16.9763 24.1251 17.0169 24.5762 17.0981 25.0257H16.4452Z" fill="#FEFEFE"/>
</g>
</svg>
