<svg width="44" height="61" viewBox="0 0 44 61" fill="none" xmlns="http://www.w3.org/2000/svg">
<path fill-rule="evenodd" clip-rule="evenodd" d="M31.6426 18.744C31.1834 18.1307 30.4501 17.7336 29.6248 17.7336H30.9761L31.6426 18.744Z" fill="#400D1D"/>
<path fill-rule="evenodd" clip-rule="evenodd" d="M17.3184 17.7336C16.6215 17.7569 15.9954 18.063 15.5544 18.5419L16.2139 17.7336H17.3184Z" fill="#400D1D"/>
<mask id="mask0_0_158" style="mask-type:alpha" maskUnits="userSpaceOnUse" x="2" y="2" width="40" height="58">
<path fill-rule="evenodd" clip-rule="evenodd" d="M2.01929 59.827H41.9039V2.34619H2.01929V59.827Z" fill="white"/>
</mask>
<g mask="url(#mask0_0_158)">
<path fill-rule="evenodd" clip-rule="evenodd" d="M18.8015 17.0415H27.328V14.0805H18.8015V17.0415ZM18.1946 17.6478H27.9349V13.4763H18.1946V17.6478Z" fill="#400D1D"/>
<path fill-rule="evenodd" clip-rule="evenodd" d="M2.32477 2.95037C2.32072 2.95037 2.31465 2.95037 2.31061 2.95239V2.95037H2.32477Z" fill="#400D1D"/>
<path fill-rule="evenodd" clip-rule="evenodd" d="M41.2446 25.4609L36.3805 25.9196L36.0285 25.3871L31.7986 18.9784L31.6509 18.7551C31.6479 18.7511 31.6449 18.747 31.6428 18.744L30.9763 17.7336L30.9277 17.6599L35.7918 17.2012L41.2446 25.4609Z" fill="#400D1D"/>
<path fill-rule="evenodd" clip-rule="evenodd" d="M16.2464 17.6944L16.214 17.7338L15.5545 18.5421L15.3644 18.7755L9.97128 25.3873L9.51006 25.9531L4.69653 25.4277L11.4318 17.168L16.2464 17.6944Z" fill="#400D1D"/>
<path fill-rule="evenodd" clip-rule="evenodd" d="M15.3643 18.7754C15.4219 18.6935 15.4856 18.6157 15.5544 18.542L15.3643 18.7754Z" fill="#400D1D"/>
<path fill-rule="evenodd" clip-rule="evenodd" d="M17.4906 17.7336H17.3186C17.3469 17.7316 17.3752 17.7316 17.4046 17.7316C17.4339 17.7316 17.4622 17.7316 17.4906 17.7336Z" fill="#400D1D"/>
<path fill-rule="evenodd" clip-rule="evenodd" d="M31.7985 18.9784L31.6508 18.7551C31.7034 18.8269 31.753 18.9006 31.7985 18.9784Z" fill="#400D1D"/>
<path fill-rule="evenodd" clip-rule="evenodd" d="M18.2834 15.4428H27.456V13.7629H18.2834V15.4428Z" fill="#400D1D"/>
<path fill-rule="evenodd" clip-rule="evenodd" d="M2.32477 8.11932C2.32072 8.11932 2.31465 8.11932 2.31061 8.12134V8.11932H2.32477Z" fill="#400D1D"/>
<path fill-rule="evenodd" clip-rule="evenodd" d="M26.3246 7.65665V13.4763H19.5782V9.39649C19.5782 8.69328 19.0037 8.12141 18.2997 8.12141H2.31059C2.14875 8.11535 2.01929 7.984 2.01929 7.82033C2.01929 7.65463 2.14875 7.52328 2.31059 7.51722C2.31463 7.5152 2.3207 7.5152 2.32475 7.5152H18.2997C19.3395 7.5152 20.1851 8.35986 20.1851 9.39649V12.8701H25.7177V7.65665C25.7177 5.06406 23.6058 2.95241 21.0104 2.95241L2.31059 2.94837C2.15078 2.9423 2.02333 2.81096 2.02333 2.6493C2.02333 2.48562 2.15078 2.35427 2.31059 2.34821C2.31463 2.34619 21.0104 2.34619 21.0104 2.34619C23.9416 2.34619 26.3246 4.72862 26.3246 7.65665Z" fill="#400D1D"/>
<path fill-rule="evenodd" clip-rule="evenodd" d="M35.9408 31.6632C35.8852 31.6632 35.8297 31.6582 35.7757 31.6464C35.7216 31.6363 35.6695 31.6195 35.6171 31.5993C35.5665 31.5774 35.5177 31.5521 35.4723 31.5218C35.4266 31.4915 35.3828 31.4563 35.344 31.4174C35.3052 31.3788 35.27 31.3349 35.2397 31.2894C35.2092 31.244 35.1822 31.1951 35.1621 31.1429C35.14 31.0924 35.1249 31.0402 35.1149 30.9863C35.103 30.9324 35.0979 30.8769 35.0979 30.8213C35.0979 30.7674 35.103 30.7118 35.1149 30.6579C35.1249 30.6041 35.14 30.5502 35.1621 30.4997C35.1822 30.4491 35.2092 30.4003 35.2397 30.3548C35.27 30.3077 35.3052 30.2656 35.344 30.2269C35.3828 30.1881 35.4266 30.1528 35.4723 30.1208C35.5177 30.0921 35.5665 30.0652 35.6171 30.0433C35.6695 30.0231 35.7216 30.0063 35.7757 29.9962C35.8835 29.9743 35.9964 29.9743 36.1045 29.9962C36.1582 30.0063 36.2122 30.0231 36.2628 30.0433C36.3133 30.0652 36.3622 30.0921 36.4079 30.1208C36.4551 30.1528 36.4973 30.1881 36.5359 30.2269C36.5748 30.2656 36.6102 30.3077 36.6421 30.3548C36.6707 30.4003 36.6977 30.4491 36.7179 30.4997C36.7398 30.5502 36.7569 30.6041 36.7668 30.6579C36.7769 30.7118 36.7837 30.7674 36.7837 30.8213C36.7837 30.8769 36.7769 30.9324 36.7668 30.9863C36.755 31.0402 36.7398 31.0924 36.7179 31.1429C36.6977 31.1951 36.6707 31.244 36.6404 31.2894C36.6102 31.3349 36.5748 31.3788 36.5359 31.4174C36.4973 31.4563 36.4551 31.4915 36.4079 31.5218C36.3622 31.5521 36.3133 31.5774 36.2628 31.5993C36.2122 31.6195 36.1582 31.6363 36.1045 31.6464C36.0504 31.6582 35.9947 31.6632 35.9408 31.6632Z" fill="#400D1D"/>
<path fill-rule="evenodd" clip-rule="evenodd" d="M35.6659 35.5024C35.6086 35.0412 35.9373 34.6202 36.3994 34.5628C36.8611 34.5072 37.2826 34.8356 37.3382 35.297C37.3957 35.7585 37.067 36.1778 36.6049 36.2351C36.5695 36.24 36.5358 36.2418 36.5004 36.2418C36.0806 36.2418 35.7183 35.9284 35.6659 35.5024ZM36.2273 40.0795C36.17 39.6179 36.5004 39.1986 36.9623 39.1414C37.4243 39.0843 37.8439 39.4127 37.9014 39.8739C37.9569 40.337 37.6283 40.7563 37.1662 40.8135C37.1325 40.8171 37.0971 40.8186 37.0634 40.8186C36.6437 40.8186 36.2797 40.5054 36.2273 40.0795ZM36.7903 44.658C36.733 44.1966 37.0617 43.7756 37.5238 43.72C37.9857 43.6628 38.4053 43.9911 38.4626 44.4525C38.5201 44.9141 38.1912 45.3351 37.7293 45.3906C37.6939 45.3955 37.6585 45.3974 37.6248 45.3974C37.205 45.3974 36.8426 45.084 36.7903 44.658ZM37.3517 49.2349C37.2944 48.7737 37.6231 48.3542 38.0852 48.2969C38.5469 48.2414 38.9683 48.5699 39.024 49.0311C39.0814 49.4925 38.7527 49.9118 38.2906 49.9691C38.2552 49.9726 38.2215 49.9758 38.1861 49.9758C37.7664 49.9758 37.4041 49.6626 37.3517 49.2349ZM37.913 53.8135C37.8557 53.3521 38.1861 52.933 38.6465 52.8756C39.1101 52.8183 39.5297 53.1467 39.5872 53.6082C39.6426 54.0696 39.3141 54.4906 38.852 54.5479C38.8166 54.5511 38.7829 54.5528 38.7492 54.5528C38.3294 54.5528 37.9655 54.2397 37.913 53.8135Z" fill="#400D1D"/>
<path fill-rule="evenodd" clip-rule="evenodd" d="M39.3124 59.1315C39.2567 59.1315 39.2013 59.1265 39.1473 59.1147C39.0932 59.1046 39.0411 59.0877 38.9887 59.0675C38.9381 59.0456 38.8892 59.0204 38.8439 58.9901C38.7982 58.9596 38.7544 58.9244 38.7156 58.8857C38.6768 58.8469 38.6416 58.8031 38.6113 58.7577C38.5807 58.7122 38.5556 58.6617 38.5337 58.6112C38.5135 58.5607 38.4965 58.5085 38.4865 58.4544C38.4745 58.4007 38.4695 58.3451 38.4695 58.2895C38.4695 58.2357 38.4745 58.1801 38.4865 58.1245C38.4965 58.0706 38.5135 58.0184 38.5337 57.9679C38.5556 57.9174 38.5807 57.8686 38.6113 57.8214C38.6416 57.7759 38.6768 57.7338 38.7156 57.6951C38.7544 57.6545 38.7982 57.6193 38.8439 57.589C38.8892 57.5587 38.9381 57.5335 38.9887 57.5116C39.0411 57.4914 39.0932 57.4745 39.1473 57.4644C39.255 57.4425 39.368 57.4425 39.4761 57.4644C39.5298 57.4745 39.5838 57.4914 39.6343 57.5116C39.6849 57.5335 39.7338 57.5587 39.7795 57.589C39.8267 57.6193 39.8688 57.6545 39.9074 57.6951C39.9464 57.7338 39.9818 57.7759 40.012 57.8214C40.0423 57.8686 40.0693 57.9174 40.0895 57.9679C40.1114 58.0184 40.1266 58.0706 40.1384 58.1245C40.1485 58.1801 40.1552 58.2357 40.1552 58.2895C40.1552 58.3451 40.1485 58.4007 40.1384 58.4544C40.1266 58.5085 40.1114 58.5607 40.0895 58.6112C40.0693 58.6617 40.0423 58.7105 40.012 58.7577C39.9818 58.8031 39.9464 58.8469 39.9074 58.8857C39.8688 58.9244 39.8267 58.9596 39.7795 58.9901C39.7338 59.0204 39.6849 59.0456 39.6343 59.0675C39.5838 59.0877 39.5298 59.1046 39.4761 59.1147C39.4219 59.1265 39.3663 59.1315 39.3124 59.1315Z" fill="#400D1D"/>
<path fill-rule="evenodd" clip-rule="evenodd" d="M29.9567 31.6632C29.9029 31.6632 29.8472 31.6582 29.7931 31.6464C29.7392 31.6363 29.6854 31.6195 29.6348 31.5993C29.5841 31.5774 29.5352 31.5521 29.4897 31.5218C29.4425 31.4915 29.4003 31.4563 29.3617 31.4174C29.3228 31.3788 29.2874 31.3349 29.2572 31.2894C29.2267 31.244 29.1999 31.1951 29.1797 31.1429C29.1578 31.0924 29.1407 31.0402 29.1308 30.9863C29.1205 30.9324 29.1138 30.8769 29.1138 30.8213C29.1138 30.6007 29.2048 30.3835 29.3617 30.2269C29.4003 30.1881 29.4425 30.1528 29.4897 30.1208C29.5352 30.0921 29.5841 30.0652 29.6348 30.045C29.6854 30.0231 29.7392 30.0063 29.7931 29.9962C29.901 29.9743 30.0141 29.9743 30.1219 29.9962C30.176 30.0063 30.2281 30.0231 30.2786 30.045C30.3311 30.0652 30.3799 30.0921 30.4253 30.1208C30.471 30.1528 30.5148 30.1881 30.5534 30.2269C30.7104 30.3835 30.7995 30.6007 30.7995 30.8213C30.7995 30.8769 30.7946 30.9324 30.7844 30.9863C30.7727 31.0402 30.7574 31.0924 30.7355 31.1429C30.7152 31.1951 30.6884 31.244 30.6579 31.2894C30.6276 31.3349 30.5924 31.3788 30.5534 31.4174C30.5148 31.4563 30.471 31.4915 30.4253 31.5218C30.3799 31.5521 30.3311 31.5774 30.2786 31.5993C30.2281 31.6195 30.176 31.6363 30.1219 31.6464C30.0679 31.6582 30.0123 31.6632 29.9567 31.6632Z" fill="#400D1D"/>
<path fill-rule="evenodd" clip-rule="evenodd" d="M29.3563 35.558C29.3327 35.0949 29.6899 34.6977 30.1535 34.674C30.619 34.6504 31.0151 35.0074 31.0386 35.4721C31.064 35.9369 30.7066 36.3328 30.2414 36.3562C30.2262 36.3562 30.211 36.3579 30.1975 36.3579C29.7525 36.3579 29.3782 36.0076 29.3563 35.558ZM29.5974 40.2528C29.5721 39.7881 29.9312 39.3925 30.3948 39.3688C30.86 39.3435 31.2562 39.7022 31.2798 40.1653C31.3034 40.63 30.946 41.0258 30.4824 41.0493C30.4672 41.051 30.4521 41.051 30.4386 41.051C29.9919 41.051 29.6193 40.7024 29.5974 40.2528ZM29.8368 44.946C29.8132 44.4812 30.1706 44.0856 30.6358 44.0619C31.1011 44.0383 31.4972 44.3953 31.5208 44.8601C31.5443 45.3248 31.1871 45.7207 30.7218 45.7441H30.678C30.2329 45.7441 29.8604 45.3956 29.8368 44.946ZM30.0778 49.6408C30.0542 49.176 30.4116 48.7804 30.8769 48.7567C31.3422 48.7314 31.7383 49.0886 31.7619 49.5532C31.7855 50.018 31.4281 50.4137 30.9629 50.4373C30.9494 50.4389 30.9342 50.4389 30.919 50.4389C30.474 50.4389 30.1014 50.0904 30.0778 49.6408ZM30.3189 54.3339C30.2953 53.8691 30.6527 53.4736 31.118 53.4498C31.5832 53.4262 31.9794 53.7832 32.003 54.248C32.0266 54.7111 31.6692 55.1068 31.2039 55.1321H31.1601C30.7151 55.1321 30.3425 54.7835 30.3189 54.3339ZM30.56 59.027C30.5364 58.5622 30.8937 58.1684 31.359 58.1429C31.8243 58.1194 32.2204 58.4765 32.244 58.9411C32.2676 59.4059 31.9103 59.8016 31.445 59.8252C31.4298 59.8252 31.4163 59.8269 31.4012 59.8269C30.9543 59.8269 30.5836 59.4766 30.56 59.027Z" fill="#400D1D"/>
<path fill-rule="evenodd" clip-rule="evenodd" d="M23.9728 31.6632C23.9171 31.6632 23.8615 31.6582 23.8076 31.6464C23.7534 31.6363 23.7014 31.6195 23.6508 31.5993C23.5984 31.5774 23.5495 31.5521 23.5041 31.5218C23.4584 31.4915 23.4146 31.4563 23.376 31.4174C23.3371 31.3788 23.3018 31.3349 23.2715 31.2894C23.241 31.244 23.2159 31.1951 23.1939 31.1446C23.1737 31.0924 23.1567 31.0402 23.1467 30.9863C23.1348 30.9324 23.1299 30.8769 23.1299 30.8213C23.1299 30.7674 23.1348 30.7118 23.1467 30.6579C23.1567 30.6041 23.1737 30.5502 23.1939 30.4997C23.2159 30.4491 23.241 30.4003 23.2715 30.3548C23.3018 30.3077 23.3371 30.2656 23.376 30.2269C23.4146 30.1881 23.4584 30.1528 23.5041 30.1224C23.5495 30.0921 23.5984 30.0652 23.6508 30.0433C23.7014 30.0231 23.7534 30.0063 23.8076 29.9962C23.9171 29.9743 24.0284 29.9743 24.1378 29.9962C24.1902 30.0063 24.244 30.0231 24.2946 30.0433C24.3453 30.0652 24.3942 30.0921 24.4397 30.1224C24.4869 30.1528 24.5291 30.1881 24.5677 30.2269C24.6066 30.2656 24.642 30.3077 24.6739 30.3548C24.7044 30.4003 24.7295 30.4491 24.7516 30.4997C24.7716 30.5502 24.7887 30.6041 24.7986 30.6579C24.8106 30.7118 24.8156 30.7674 24.8156 30.8213C24.8156 30.8769 24.8106 30.9324 24.7986 30.9863C24.7887 31.0402 24.7716 31.0924 24.7516 31.1446C24.7295 31.1951 24.7044 31.244 24.6739 31.2894C24.642 31.3349 24.6066 31.3788 24.5677 31.4174C24.5291 31.4563 24.4869 31.4915 24.4397 31.5218C24.3942 31.5521 24.3453 31.5774 24.2946 31.5993C24.244 31.6195 24.1902 31.6363 24.1378 31.6464C24.0822 31.6582 24.0265 31.6632 23.9728 31.6632Z" fill="#400D1D"/>
<path fill-rule="evenodd" clip-rule="evenodd" d="M23.1309 35.516C23.1309 35.0496 23.5083 34.6741 23.9737 34.6741C24.439 34.6741 24.8166 35.0496 24.8166 35.516C24.8166 35.9808 24.439 36.358 23.9737 36.358C23.5083 36.358 23.1309 35.9808 23.1309 35.516ZM23.1309 40.2092C23.1309 39.7444 23.5083 39.3672 23.9737 39.3672C24.439 39.3672 24.8166 39.7444 24.8166 40.2092C24.8166 40.6739 24.439 41.0511 23.9737 41.0511C23.5083 41.0511 23.1309 40.6739 23.1309 40.2092ZM23.1309 44.904C23.1309 44.4375 23.5083 44.062 23.9737 44.062C24.439 44.062 24.8166 44.4375 24.8166 44.904C24.8166 45.3671 24.439 45.7459 23.9737 45.7459C23.5083 45.7459 23.1309 45.3671 23.1309 44.904ZM23.1309 49.5971C23.1309 49.1323 23.5083 48.7551 23.9737 48.7551C24.439 48.7551 24.8166 49.1323 24.8166 49.5971C24.8166 50.0619 24.439 50.4391 23.9737 50.4391C23.5083 50.4391 23.1309 50.0619 23.1309 49.5971ZM23.1309 54.2902C23.1309 53.8255 23.5083 53.4483 23.9737 53.4483C24.439 53.4483 24.8166 53.8255 24.8166 54.2902C24.8166 54.755 24.439 55.1322 23.9737 55.1322C23.5083 55.1322 23.1309 54.755 23.1309 54.2902ZM23.1309 58.985C23.1309 58.5188 23.5083 58.1431 23.9737 58.1431C24.439 58.1431 24.8166 58.5188 24.8166 58.985C24.8166 59.4498 24.439 59.827 23.9737 59.827C23.5083 59.827 23.1309 59.4498 23.1309 58.985Z" fill="#400D1D"/>
<path fill-rule="evenodd" clip-rule="evenodd" d="M17.9903 31.6632C17.7678 31.6632 17.5504 31.5739 17.3936 31.4173C17.3548 31.3788 17.3194 31.3348 17.2891 31.2893C17.2587 31.2439 17.2317 31.195 17.2115 31.1445C17.1896 31.0923 17.1744 31.0401 17.1626 30.9862C17.1525 30.9324 17.1475 30.8768 17.1475 30.8212C17.1475 30.7673 17.1525 30.7118 17.1626 30.6579C17.1744 30.604 17.1896 30.5501 17.2115 30.4996C17.2317 30.4491 17.2587 30.4002 17.2891 30.3548C17.3194 30.3076 17.3548 30.2655 17.3936 30.2268C17.5504 30.0702 17.7678 29.9792 17.9903 29.9792C18.2112 29.9792 18.4286 30.0702 18.5854 30.2268C18.7422 30.3834 18.8315 30.6006 18.8315 30.8212C18.8315 31.0435 18.7422 31.2607 18.5854 31.4173C18.4286 31.5739 18.2112 31.6632 17.9903 31.6632Z" fill="#400D1D"/>
<path fill-rule="evenodd" clip-rule="evenodd" d="M17.7059 36.3562C17.2407 36.3326 16.8833 35.9369 16.9069 35.4721C16.9305 35.0074 17.3283 34.6504 17.7919 34.674C18.2572 34.6975 18.6146 35.0949 18.591 35.558C18.5674 36.0076 18.1948 36.3579 17.7498 36.3579C17.7346 36.3579 17.7211 36.3562 17.7059 36.3562ZM17.4649 41.0493C16.9996 41.0256 16.6422 40.63 16.6658 40.1653C16.6911 39.7022 17.0856 39.3435 17.5508 39.3688C18.0161 39.3923 18.3735 39.7881 18.3499 40.2528C18.328 40.7024 17.9554 41.051 17.5087 41.051C17.4935 41.051 17.48 41.051 17.4649 41.0493ZM17.2238 45.7441C16.7602 45.7206 16.4012 45.3248 16.4264 44.8601C16.45 44.3953 16.8462 44.0383 17.3098 44.0619C17.7751 44.0855 18.1324 44.4812 18.1088 44.946C18.0852 45.3956 17.7144 45.7441 17.2693 45.7441H17.2238ZM16.9827 50.4373C16.5192 50.4135 16.1601 50.018 16.1854 49.5532C16.209 49.0884 16.6051 48.7314 17.0704 48.7567C17.534 48.7803 17.8931 49.176 17.8678 49.6408C17.8459 50.0904 17.4733 50.439 17.0266 50.439C17.0131 50.439 16.9979 50.439 16.9827 50.4373ZM16.7417 55.1321C16.2781 55.1068 15.9207 54.7111 15.9443 54.248C15.9679 53.7832 16.3641 53.4263 16.8293 53.4498C17.2946 53.4734 17.652 53.8691 17.6267 54.3339C17.6048 54.7835 17.2322 55.1321 16.7855 55.1321H16.7417ZM16.5023 59.8252C16.037 59.8015 15.6797 59.4059 15.7033 58.9411C15.7269 58.4764 16.123 58.1194 16.5883 58.143C17.0535 58.1682 17.4109 58.5623 17.3873 59.027C17.3637 59.4766 16.9912 59.8269 16.5461 59.8269C16.531 59.8269 16.5158 59.8252 16.5023 59.8252Z" fill="#400D1D"/>
<path fill-rule="evenodd" clip-rule="evenodd" d="M12.0065 31.6632C11.7839 31.6632 11.5682 31.5739 11.4114 31.4173C11.2529 31.2607 11.1636 31.0435 11.1636 30.8212C11.1636 30.6006 11.2529 30.3834 11.4114 30.2268C11.5665 30.0702 11.7839 29.9792 12.0065 29.9792C12.229 29.9792 12.4464 30.0702 12.6032 30.2268C12.76 30.3834 12.8493 30.6006 12.8493 30.8212C12.8493 31.0435 12.76 31.2607 12.6032 31.4173C12.5628 31.4562 12.5206 31.4914 12.4751 31.5217C12.4279 31.552 12.379 31.5773 12.3284 31.5992C12.2779 31.6194 12.2256 31.6362 12.1717 31.6463C12.1177 31.6581 12.0621 31.6632 12.0065 31.6632Z" fill="#400D1D"/>
<path fill-rule="evenodd" clip-rule="evenodd" d="M11.3423 36.2351C10.8804 36.1778 10.5517 35.7585 10.6073 35.2971C10.6646 34.8356 11.0844 34.5072 11.5463 34.5628C12.0098 34.6202 12.3386 35.0412 12.2812 35.5024C12.229 35.9286 11.8666 36.2418 11.4451 36.2418C11.4114 36.2418 11.376 36.24 11.3423 36.2351ZM10.7809 40.8135C10.3173 40.7565 9.9903 40.337 10.0459 39.8739C10.1032 39.4127 10.523 39.0843 10.9849 39.1416C11.4468 39.1988 11.7755 39.6181 11.7199 40.0795C11.6676 40.5054 11.3035 40.8188 10.8838 40.8188C10.85 40.8188 10.8146 40.8171 10.7809 40.8135ZM10.2179 45.3906C9.75598 45.3351 9.42725 44.9141 9.48457 44.4527C9.5402 43.9913 9.96164 43.6628 10.4235 43.72C10.8854 43.7756 11.2142 44.1966 11.1568 44.6581C11.1046 45.0842 10.7421 45.3974 10.3224 45.3974C10.287 45.3974 10.2533 45.3955 10.2179 45.3906ZM9.65652 49.9693C9.19462 49.912 8.8659 49.4925 8.92153 49.0311C8.97884 48.5699 9.3986 48.2415 9.8605 48.2971C10.3241 48.3544 10.6528 48.7737 10.5955 49.2349C10.5432 49.6626 10.1791 49.976 9.76104 49.976C9.72563 49.976 9.69192 49.9726 9.65652 49.9693ZM9.09516 54.5479C8.63157 54.4906 8.30454 54.0696 8.36017 53.6082C8.41748 53.1468 8.83724 52.8183 9.29914 52.8756C9.76104 52.933 10.0898 53.3521 10.0341 53.8137C9.98187 54.2397 9.61775 54.5528 9.19799 54.5528C9.16428 54.5528 9.12887 54.5512 9.09516 54.5479Z" fill="#400D1D"/>
<path fill-rule="evenodd" clip-rule="evenodd" d="M8.63487 59.1315C8.57924 59.1315 8.5253 59.1265 8.46967 59.1147C8.41572 59.1046 8.36347 59.0877 8.31289 59.0675C8.26232 59.0456 8.21343 59.0204 8.16623 58.9901C8.12072 58.9596 8.07689 58.9244 8.03811 58.8857C7.99934 58.8469 7.96394 58.8031 7.9336 58.7577C7.90325 58.7122 7.87797 58.6617 7.85605 58.6112C7.83582 58.5607 7.81896 58.5085 7.80885 58.4544C7.79705 58.4007 7.79199 58.3451 7.79199 58.2895C7.79199 58.2357 7.79705 58.1801 7.80885 58.1245C7.81896 58.0706 7.83582 58.0184 7.85605 57.9679C7.87797 57.9174 7.90325 57.8686 7.9336 57.8214C7.96394 57.7759 7.99934 57.7338 8.03811 57.6951C8.07689 57.6545 8.12072 57.6193 8.16623 57.589C8.21343 57.5587 8.26232 57.5335 8.31289 57.5116C8.36347 57.4914 8.41572 57.4745 8.46967 57.4644C8.57924 57.4425 8.6905 57.4425 8.80008 57.4644C8.85402 57.4745 8.90628 57.4914 8.95685 57.5116C9.00743 57.5335 9.05631 57.5587 9.10351 57.589C9.14903 57.6193 9.19286 57.6545 9.23163 57.6951C9.2704 57.7338 9.30581 57.7759 9.33615 57.8214C9.36649 57.8686 9.39178 57.9174 9.41369 57.9679C9.43392 58.0184 9.45078 58.0706 9.4609 58.1245C9.4727 58.1801 9.47775 58.2357 9.47775 58.2895C9.47775 58.3451 9.4727 58.4007 9.4609 58.4544C9.45078 58.5085 9.43392 58.5607 9.41369 58.6112C9.39178 58.6617 9.36649 58.7105 9.33615 58.7577C9.30581 58.8031 9.2704 58.8469 9.23163 58.8857C9.19286 58.9244 9.14903 58.9596 9.10351 58.9901C9.05631 59.0204 9.00743 59.0456 8.95685 59.0675C8.90628 59.0877 8.85402 59.1046 8.80008 59.1147C8.74613 59.1265 8.6905 59.1315 8.63487 59.1315Z" fill="#400D1D"/>
</g>
<path fill-rule="evenodd" clip-rule="evenodd" d="M11.5542 17.5962L4.36548 25.8077H41.9039L36.084 17.5962H11.5542ZM11.8408 18.1577H35.7593L40.7828 25.2463H5.63466L11.8408 18.1577Z" fill="#1F2940"/>
</svg>
