<?xml version="1.0" encoding="UTF-8"?><svg id="Pink" xmlns="http://www.w3.org/2000/svg" width="297mm" height="235.34mm" xmlns:xlink="http://www.w3.org/1999/xlink" viewBox="0 0 841.89 667.1"><defs><style>.cls-1{fill:none;}.cls-2{clip-path:url(#clippath);}.cls-3{fill:#fff;}.cls-4{fill:#b45ca4;}</style><clipPath id="clippath"><rect class="cls-1" width="841.89" height="667.1"/></clipPath></defs><g class="cls-2"><g><g id="Amenity"><circle class="cls-4" cx="353.47" cy="279.86" r="7.6"/></g><path class="cls-3" d="M353.54,278.28l-1.66,.98v-1.12s1.75-1.03,1.75-1.03h.9s.03,5.79,.03,5.79h-.99s-.02-4.62-.02-4.62Z"/></g><g><g id="Amenity-2"><circle class="cls-4" cx="406.37" cy="279.79" r="7.6"/></g><path class="cls-3" d="M408.6,281.9v.94s-4.52,.02-4.52,.02v-.77c0-.52,.12-.93,.38-1.25,.33-.41,.79-.68,1.65-.96,1.21-.41,1.56-.66,1.55-1.2,0-.48-.46-.82-1.14-.81-.86,0-1.4,.46-1.5,1.32l-.98-.09c.12-1.31,1.06-2.17,2.48-2.17,1.23,0,2.13,.75,2.13,1.76,0,.98-.54,1.5-1.99,1.97-.8,.27-1.17,.45-1.36,.67-.13,.16-.17,.28-.17,.59l3.46-.02Z"/></g><g><g id="Amenity-3"><circle class="cls-4" cx="441.19" cy="279.79" r="7.6"/></g><path class="cls-3" d="M439.75,280.56c.12,.86,.62,1.29,1.48,1.29,.81,0,1.27-.35,1.27-.94,0-.59-.37-.87-1.17-.87h-.72s0-.82,0-.82h.72c.66,0,1.04-.28,1.04-.75,0-.48-.45-.78-1.15-.78-.8,0-1.26,.36-1.39,1.06l-.98-.17c.09-.56,.35-1,.77-1.33,.42-.34,.96-.5,1.6-.51,1.24,0,2.11,.66,2.12,1.62,0,.49-.23,.87-.7,1.16v.02c.54,.27,.87,.78,.87,1.43,0,1.09-.89,1.82-2.26,1.83-.68,0-1.24-.17-1.68-.54-.43-.36-.69-.85-.77-1.48l.97-.21Z"/></g></g></svg>