<svg width="52" height="39" viewBox="0 0 52 39" fill="none" xmlns="http://www.w3.org/2000/svg">
<path fill-rule="evenodd" clip-rule="evenodd" d="M27.6264 -3.65294L5.17969 5.64916V5.28403L27.6264 -4.01807V-3.65294Z" fill="#1F2840"/>
<path fill-rule="evenodd" clip-rule="evenodd" d="M5.15111 5.28338V24.259C5.15111 37.3183 4.8848 37.5854 2.28165 37.5854H1.16601C0.74056 37.5854 0.74056 38.066 1.16601 38.066C2.65353 38.066 6.37389 37.9047 7.17123 37.9047C7.86141 37.9047 30.1852 38.066 31.6191 38.066C32.0446 38.066 32.0446 37.5854 31.6191 37.5854H12.1128C9.50808 37.5854 9.24335 37.3183 9.24335 24.259V3.85132L5.15111 5.28338Z" fill="#1F2840"/>
<path fill-rule="evenodd" clip-rule="evenodd" d="M23.5345 -2.26696V24.2594C23.5345 37.3187 23.2682 37.5858 20.665 37.5858H1.1272C0.701742 37.5858 0.701742 38.0648 1.1272 38.0648C2.61471 38.0648 24.7573 37.9051 25.5546 37.9051C26.2448 37.9051 30.1763 38.0648 31.6118 38.0648C32.0373 38.0648 32.0373 37.5858 31.6118 37.5858H30.4962C27.8914 37.5858 27.6267 37.3187 27.6267 24.2594V-4.01831L23.5345 -2.26696Z" fill="#1F2840"/>
<path fill-rule="evenodd" clip-rule="evenodd" d="M23.5888 5.2832V24.2588C23.5888 37.3181 23.3225 37.5853 20.7194 37.5853H19.6038C19.1783 37.5853 19.1783 38.0658 19.6038 38.0658C21.0913 38.0658 24.8116 37.9046 25.609 37.9046C26.2992 37.9046 48.6229 38.0658 50.0569 38.0658C50.4823 38.0658 50.4823 37.5853 50.0569 37.5853H30.5505C27.9458 37.5853 27.6811 37.3181 27.6811 24.2588V5.2832H23.5888Z" fill="#1F2840"/>
<path fill-rule="evenodd" clip-rule="evenodd" d="M41.9722 5.2832V24.2588C41.9722 37.3181 41.7059 37.5853 39.1028 37.5853H19.5649C19.1395 37.5853 19.1395 38.0658 19.5649 38.0658C21.0525 38.0658 43.195 37.9046 43.9923 37.9046C44.6825 37.9046 48.614 38.0658 50.0495 38.0658C50.475 38.0658 50.475 37.5853 50.0495 37.5853H48.9339C46.3292 37.5853 46.0645 37.3181 46.0645 24.2588V5.2832H41.9722Z" fill="#1F2840"/>
<path fill-rule="evenodd" clip-rule="evenodd" d="M23.6174 5.64818H46.0641V5.28305H23.6174V5.64818Z" fill="#1F2840"/>
<path fill-rule="evenodd" clip-rule="evenodd" d="M23.6174 5.64818H46.0641V5.28305H23.6174V5.64818Z" fill="#1F2840"/>
<path fill-rule="evenodd" clip-rule="evenodd" d="M1.18799 38.0656H50.0491V37.6215H1.18799V38.0656Z" fill="#1F2840"/>
<path fill-rule="evenodd" clip-rule="evenodd" d="M46.0421 5.28331L44.1559 -8.71015C44.1259 -8.9267 43.8124 -8.9267 43.784 -8.71015L41.8962 5.28331H46.0421Z" fill="#1F2840"/>
</svg>
