<svg width="44" height="63" viewBox="0 0 44 63" fill="none" xmlns="http://www.w3.org/2000/svg">
<path fill-rule="evenodd" clip-rule="evenodd" d="M31.8062 19.3579C31.3319 18.7245 30.5746 18.3145 29.7222 18.3145H31.1178L31.8062 19.3579Z" fill="#400D1D"/>
<path fill-rule="evenodd" clip-rule="evenodd" d="M17.0122 18.3145C16.2925 18.3385 15.6459 18.6546 15.1904 19.1492L15.8715 18.3145H17.0122Z" fill="#400D1D"/>
<mask id="mask0_0_84" style="mask-type:alpha" maskUnits="userSpaceOnUse" x="1" y="2" width="42" height="60">
<path fill-rule="evenodd" clip-rule="evenodd" d="M1.21143 61.7882H42.4037V2.42285H1.21143V61.7882Z" fill="white"/>
</mask>
<g mask="url(#mask0_0_84)">
<path fill-rule="evenodd" clip-rule="evenodd" d="M18.5438 17.6001H27.3499V14.542H18.5438V17.6001ZM17.917 18.2262H27.9767V13.918H17.917V18.2262Z" fill="#400D1D"/>
<path fill-rule="evenodd" clip-rule="evenodd" d="M1.52698 3.04685C1.5228 3.04685 1.51653 3.04685 1.51236 3.04894V3.04685H1.52698Z" fill="#400D1D"/>
<path fill-rule="evenodd" clip-rule="evenodd" d="M41.7227 26.2952L36.6992 26.7689L36.3356 26.219L31.967 19.6001L31.8145 19.3695C31.8114 19.3654 31.8083 19.3612 31.8062 19.3581L31.1178 18.3146L31.0676 18.2384L36.0912 17.7646L41.7227 26.2952Z" fill="#400D1D"/>
<path fill-rule="evenodd" clip-rule="evenodd" d="M15.9048 18.2741L15.8714 18.3148L15.1903 19.1496L14.9939 19.3907L9.42401 26.2192L8.94766 26.8036L3.97632 26.261L10.9324 17.7305L15.9048 18.2741Z" fill="#400D1D"/>
<path fill-rule="evenodd" clip-rule="evenodd" d="M14.9939 19.3905C15.0534 19.3059 15.1193 19.2256 15.1903 19.1494L14.9939 19.3905Z" fill="#400D1D"/>
<path fill-rule="evenodd" clip-rule="evenodd" d="M17.1898 18.3146H17.0122C17.0415 18.3125 17.0707 18.3125 17.101 18.3125C17.1313 18.3125 17.1605 18.3125 17.1898 18.3146Z" fill="#400D1D"/>
<path fill-rule="evenodd" clip-rule="evenodd" d="M31.967 19.6007L31.8145 19.3701C31.8688 19.4442 31.92 19.5204 31.967 19.6007Z" fill="#400D1D"/>
<path fill-rule="evenodd" clip-rule="evenodd" d="M18.0088 15.9488H27.4821V14.2139H18.0088V15.9488Z" fill="#400D1D"/>
<path fill-rule="evenodd" clip-rule="evenodd" d="M1.52698 8.38572C1.5228 8.38572 1.51653 8.38572 1.51236 8.38781V8.38572H1.52698Z" fill="#400D1D"/>
<path fill-rule="evenodd" clip-rule="evenodd" d="M26.3136 7.90742V13.9179H19.346V9.70431C19.346 8.97804 18.7527 8.38742 18.0256 8.38742H1.51228C1.34514 8.38116 1.21143 8.24551 1.21143 8.07647C1.21143 7.90533 1.34514 7.76968 1.51228 7.76342C1.51645 7.76133 1.52272 7.76133 1.5269 7.76133H18.0256C19.0995 7.76133 19.9728 8.63369 19.9728 9.70431V13.2918H25.6869V7.90742C25.6869 5.22983 23.5057 3.04894 20.8252 3.04894L1.51228 3.04477C1.34723 3.03851 1.2156 2.90286 1.2156 2.7359C1.2156 2.56685 1.34723 2.4312 1.51228 2.42494C1.51645 2.42285 20.8252 2.42285 20.8252 2.42285C23.8525 2.42285 26.3136 4.88339 26.3136 7.90742Z" fill="#400D1D"/>
<path fill-rule="evenodd" clip-rule="evenodd" d="M36.245 32.7006C36.1876 32.7006 36.1303 32.6954 36.0746 32.6832C36.0187 32.6728 35.9649 32.6554 35.9108 32.6345C35.8585 32.6119 35.808 32.5858 35.7612 32.5545C35.714 32.5232 35.6687 32.4869 35.6287 32.4467C35.5887 32.4069 35.5523 32.3615 35.5209 32.3145C35.4894 32.2676 35.4616 32.2171 35.4408 32.1632C35.418 32.1111 35.4024 32.0571 35.3921 32.0015C35.3797 31.9458 35.3745 31.8884 35.3745 31.8311C35.3745 31.7754 35.3797 31.718 35.3921 31.6624C35.4024 31.6067 35.418 31.551 35.4408 31.4989C35.4616 31.4467 35.4894 31.3963 35.5209 31.3493C35.5523 31.3006 35.5887 31.2571 35.6287 31.2171C35.6687 31.1771 35.714 31.1406 35.7612 31.1076C35.808 31.078 35.8585 31.0502 35.9108 31.0276C35.9649 31.0067 36.0187 30.9893 36.0746 30.9789C36.1858 30.9563 36.3025 30.9563 36.4141 30.9789C36.4696 30.9893 36.5253 31.0067 36.5776 31.0276C36.6298 31.0502 36.6803 31.078 36.7275 31.1076C36.7762 31.1406 36.8197 31.1771 36.8596 31.2171C36.8998 31.2571 36.9364 31.3006 36.9693 31.3493C36.9989 31.3963 37.0268 31.4467 37.0476 31.4989C37.0703 31.551 37.0879 31.6067 37.0981 31.6624C37.1086 31.718 37.1155 31.7754 37.1155 31.8311C37.1155 31.8884 37.1086 31.9458 37.0981 32.0015C37.0859 32.0571 37.0703 32.1111 37.0476 32.1632C37.0268 32.2171 36.9989 32.2676 36.9676 32.3145C36.9364 32.3615 36.8998 32.4069 36.8596 32.4467C36.8197 32.4869 36.7762 32.5232 36.7275 32.5545C36.6803 32.5858 36.6298 32.6119 36.5776 32.6345C36.5253 32.6554 36.4696 32.6728 36.4141 32.6832C36.3582 32.6954 36.3007 32.7006 36.245 32.7006Z" fill="#400D1D"/>
<path fill-rule="evenodd" clip-rule="evenodd" d="M35.9613 36.6662C35.9021 36.1899 36.2416 35.7551 36.7188 35.6958C37.1957 35.6384 37.6309 35.9775 37.6884 36.4541C37.7478 36.9308 37.4083 37.3638 36.931 37.4229C36.8945 37.428 36.8597 37.4299 36.8231 37.4299C36.3896 37.4299 36.0154 37.1062 35.9613 36.6662ZM36.5411 41.3934C36.4819 40.9167 36.8231 40.4837 37.3001 40.4245C37.7774 40.3656 38.2107 40.7047 38.2701 41.1811C38.3274 41.6593 37.988 42.0924 37.5108 42.1515C37.476 42.1551 37.4394 42.1567 37.4046 42.1567C36.9711 42.1567 36.5952 41.8332 36.5411 41.3934ZM37.1226 46.122C37.0634 45.6454 37.4029 45.2107 37.8801 45.1533C38.3571 45.0941 38.7905 45.4333 38.8497 45.9098C38.909 46.3865 38.5694 46.8213 38.0923 46.8787C38.0558 46.8837 38.0192 46.8856 37.9844 46.8856C37.5509 46.8856 37.1765 46.562 37.1226 46.122ZM37.7023 50.849C37.6431 50.3726 37.9826 49.9394 38.4598 49.8803C38.9367 49.8229 39.372 50.1622 39.4294 50.6385C39.4888 51.1151 39.1493 51.5481 38.6721 51.6072C38.6355 51.6109 38.6007 51.6142 38.5641 51.6142C38.1306 51.6142 37.7565 51.2907 37.7023 50.849ZM38.2821 55.5777C38.2229 55.1012 38.5641 54.6683 39.0396 54.609C39.5184 54.5499 39.9517 54.889 40.0111 55.3657C40.0684 55.8422 39.7291 56.277 39.2518 56.3361C39.2153 56.3394 39.1805 56.3412 39.1456 56.3412C38.7121 56.3412 38.3362 56.0179 38.2821 55.5777Z" fill="#400D1D"/>
<path fill-rule="evenodd" clip-rule="evenodd" d="M39.7272 61.0698C39.6698 61.0698 39.6125 61.0645 39.5568 61.0524C39.5009 61.0419 39.4471 61.0245 39.3929 61.0037C39.3407 60.9811 39.2902 60.955 39.2434 60.9237C39.1962 60.8922 39.1509 60.8558 39.1109 60.8158C39.0708 60.7758 39.0344 60.7306 39.0031 60.6837C38.9716 60.6367 38.9457 60.5845 38.923 60.5324C38.9021 60.4802 38.8845 60.4263 38.8743 60.3705C38.8619 60.315 38.8567 60.2576 38.8567 60.2002C38.8567 60.1445 38.8619 60.0871 38.8743 60.0298C38.8845 59.9741 38.9021 59.9202 38.923 59.868C38.9457 59.8158 38.9716 59.7654 39.0031 59.7167C39.0344 59.6698 39.0708 59.6263 39.1109 59.5863C39.1509 59.5444 39.1962 59.508 39.2434 59.4767C39.2902 59.4454 39.3407 59.4193 39.3929 59.3967C39.4471 59.3758 39.5009 59.3584 39.5568 59.348C39.668 59.3254 39.7847 59.3254 39.8963 59.348C39.9518 59.3584 40.0075 59.3758 40.0597 59.3967C40.112 59.4193 40.1625 59.4454 40.2096 59.4767C40.2584 59.508 40.3019 59.5444 40.3418 59.5863C40.382 59.6263 40.4186 59.6698 40.4497 59.7167C40.4811 59.7654 40.5089 59.8158 40.5298 59.868C40.5525 59.9202 40.5681 59.9741 40.5803 60.0298C40.5908 60.0871 40.5977 60.1445 40.5977 60.2002C40.5977 60.2576 40.5908 60.315 40.5803 60.3705C40.5681 60.4263 40.5525 60.4802 40.5298 60.5324C40.5089 60.5845 40.4811 60.635 40.4497 60.6837C40.4186 60.7306 40.382 60.7758 40.3418 60.8158C40.3019 60.8558 40.2584 60.8922 40.2096 60.9237C40.1625 60.955 40.112 60.9811 40.0597 61.0037C40.0075 61.0245 39.9518 61.0419 39.8963 61.0524C39.8404 61.0645 39.7829 61.0698 39.7272 61.0698Z" fill="#400D1D"/>
<path fill-rule="evenodd" clip-rule="evenodd" d="M30.0649 32.7006C30.0093 32.7006 29.9519 32.6954 29.896 32.6832C29.8403 32.6728 29.7847 32.6554 29.7325 32.6345C29.6801 32.6119 29.6296 32.5858 29.5826 32.5545C29.5338 32.5232 29.4903 32.4869 29.4504 32.4467C29.4102 32.4069 29.3737 32.3615 29.3425 32.3145C29.311 32.2676 29.2833 32.2171 29.2624 32.1632C29.2398 32.1111 29.2222 32.0571 29.2119 32.0015C29.2013 31.9458 29.1943 31.8884 29.1943 31.8311C29.1943 31.6032 29.2884 31.3789 29.4504 31.2171C29.4903 31.1771 29.5338 31.1406 29.5826 31.1076C29.6296 31.078 29.6801 31.0502 29.7325 31.0293C29.7847 31.0067 29.8403 30.9893 29.896 30.9789C30.0074 30.9563 30.1242 30.9563 30.2355 30.9789C30.2914 30.9893 30.3452 31.0067 30.3974 31.0293C30.4515 31.0502 30.502 31.078 30.5489 31.1076C30.596 31.1406 30.6413 31.1771 30.6812 31.2171C30.8433 31.3789 30.9354 31.6032 30.9354 31.8311C30.9354 31.8884 30.9303 31.9458 30.9197 32.0015C30.9077 32.0571 30.8918 32.1111 30.8692 32.1632C30.8483 32.2171 30.8206 32.2676 30.7891 32.3145C30.7578 32.3615 30.7214 32.4069 30.6812 32.4467C30.6413 32.4869 30.596 32.5232 30.5489 32.5545C30.502 32.5858 30.4515 32.6119 30.3974 32.6345C30.3452 32.6554 30.2914 32.6728 30.2355 32.6832C30.1798 32.6954 30.1223 32.7006 30.0649 32.7006Z" fill="#400D1D"/>
<path fill-rule="evenodd" clip-rule="evenodd" d="M29.4447 36.7238C29.4204 36.2455 29.7893 35.8352 30.2681 35.8107C30.7488 35.7864 31.1579 36.1551 31.1821 36.6351C31.2084 37.1151 30.8393 37.5239 30.3588 37.5481C30.3431 37.5481 30.3274 37.5499 30.3135 37.5499C29.8539 37.5499 29.4674 37.1881 29.4447 36.7238ZM29.6937 41.5725C29.6676 41.0925 30.0384 40.684 30.5172 40.6594C30.9977 40.6334 31.4069 41.0038 31.4313 41.4821C31.4556 41.9621 31.0865 42.3708 30.6078 42.3951C30.5921 42.3969 30.5764 42.3969 30.5625 42.3969C30.1011 42.3969 29.7163 42.0369 29.6937 41.5725ZM29.9409 46.4195C29.9166 45.9395 30.2857 45.531 30.7662 45.5064C31.2467 45.4821 31.6559 45.8508 31.6802 46.3308C31.7044 46.8108 31.3355 47.2197 30.855 47.2439H30.8097C30.3501 47.2439 29.9653 46.8838 29.9409 46.4195ZM30.1899 51.2682C30.1655 50.7882 30.5346 50.3797 31.0152 50.3552C31.4957 50.3291 31.9048 50.698 31.9292 51.1778C31.9536 51.6578 31.5845 52.0665 31.1039 52.0909C31.09 52.0926 31.0744 52.0926 31.0587 52.0926C30.599 52.0926 30.2143 51.7326 30.1899 51.2682ZM30.4389 56.1152C30.4145 55.6352 30.7836 55.2267 31.2641 55.2022C31.7446 55.1778 32.1538 55.5465 32.1782 56.0265C32.2025 56.5048 31.8334 56.9135 31.3529 56.9396H31.3076C30.848 56.9396 30.4632 56.5796 30.4389 56.1152ZM30.6878 60.9622C30.6635 60.4822 31.0326 60.0754 31.5131 60.0492C31.9936 60.0248 32.4028 60.3937 32.4271 60.8735C32.4515 61.3535 32.0824 61.7622 31.6019 61.7866C31.5862 61.7866 31.5723 61.7883 31.5566 61.7883C31.0951 61.7883 30.7122 61.4266 30.6878 60.9622Z" fill="#400D1D"/>
<path fill-rule="evenodd" clip-rule="evenodd" d="M23.8847 32.7006C23.8272 32.7006 23.7698 32.6954 23.7141 32.6832C23.6582 32.6728 23.6044 32.6554 23.5521 32.6345C23.498 32.6119 23.4475 32.5858 23.4007 32.5545C23.3535 32.5232 23.3082 32.4869 23.2684 32.4467C23.2281 32.4069 23.1917 32.3615 23.1604 32.3145C23.1289 32.2676 23.103 32.2171 23.0803 32.165C23.0594 32.1111 23.0418 32.0571 23.0316 32.0015C23.0192 31.9458 23.0142 31.8884 23.0142 31.8311C23.0142 31.7754 23.0192 31.718 23.0316 31.6624C23.0418 31.6067 23.0594 31.551 23.0803 31.4989C23.103 31.4467 23.1289 31.3963 23.1604 31.3493C23.1917 31.3006 23.2281 31.2571 23.2684 31.2171C23.3082 31.1771 23.3535 31.1406 23.4007 31.1093C23.4475 31.078 23.498 31.0502 23.5521 31.0276C23.6044 31.0067 23.6582 30.9893 23.7141 30.9789C23.8272 30.9563 23.9421 30.9563 24.0551 30.9789C24.1093 30.9893 24.1648 31.0067 24.217 31.0276C24.2694 31.0502 24.3199 31.078 24.3669 31.1093C24.4157 31.1406 24.4592 31.1771 24.4991 31.2171C24.5393 31.2571 24.5759 31.3006 24.6088 31.3493C24.6403 31.3963 24.6662 31.4467 24.689 31.4989C24.7098 31.551 24.7273 31.6067 24.7376 31.6624C24.75 31.718 24.7552 31.7754 24.7552 31.8311C24.7552 31.8884 24.75 31.9458 24.7376 32.0015C24.7273 32.0571 24.7098 32.1111 24.689 32.165C24.6662 32.2171 24.6403 32.2676 24.6088 32.3145C24.5759 32.3615 24.5393 32.4069 24.4991 32.4467C24.4592 32.4869 24.4157 32.5232 24.3669 32.5545C24.3199 32.5858 24.2694 32.6119 24.217 32.6345C24.1648 32.6554 24.1093 32.6728 24.0551 32.6832C23.9977 32.6954 23.9402 32.7006 23.8847 32.7006Z" fill="#400D1D"/>
<path fill-rule="evenodd" clip-rule="evenodd" d="M23.0151 36.6801C23.0151 36.1984 23.405 35.8105 23.8857 35.8105C24.3662 35.8105 24.7562 36.1984 24.7562 36.6801C24.7562 37.1601 24.3662 37.5497 23.8857 37.5497C23.405 37.5497 23.0151 37.1601 23.0151 36.6801ZM23.0151 41.5271C23.0151 41.0471 23.405 40.6575 23.8857 40.6575C24.3662 40.6575 24.7562 41.0471 24.7562 41.5271C24.7562 42.0071 24.3662 42.3967 23.8857 42.3967C23.405 42.3967 23.0151 42.0071 23.0151 41.5271ZM23.0151 46.3759C23.0151 45.8941 23.405 45.5063 23.8857 45.5063C24.3662 45.5063 24.7562 45.8941 24.7562 46.3759C24.7562 46.8541 24.3662 47.2454 23.8857 47.2454C23.405 47.2454 23.0151 46.8541 23.0151 46.3759ZM23.0151 51.2229C23.0151 50.7428 23.405 50.3533 23.8857 50.3533C24.3662 50.3533 24.7562 50.7428 24.7562 51.2229C24.7562 51.7029 24.3662 52.0924 23.8857 52.0924C23.405 52.0924 23.0151 51.7029 23.0151 51.2229ZM23.0151 56.0699C23.0151 55.5898 23.405 55.2003 23.8857 55.2003C24.3662 55.2003 24.7562 55.5898 24.7562 56.0699C24.7562 56.5499 24.3662 56.9394 23.8857 56.9394C23.405 56.9394 23.0151 56.5499 23.0151 56.0699ZM23.0151 60.9186C23.0151 60.437 23.405 60.049 23.8857 60.049C24.3662 60.049 24.7562 60.437 24.7562 60.9186C24.7562 61.3986 24.3662 61.7882 23.8857 61.7882C23.405 61.7882 23.0151 61.3986 23.0151 60.9186Z" fill="#400D1D"/>
<path fill-rule="evenodd" clip-rule="evenodd" d="M17.7062 32.7011C17.4764 32.7011 17.2518 32.6089 17.0899 32.4471C17.0498 32.4073 17.0133 32.3619 16.9819 32.315C16.9506 32.268 16.9227 32.2176 16.9019 32.1654C16.8792 32.1115 16.8635 32.0576 16.8514 32.0019C16.8409 31.9463 16.8357 31.8889 16.8357 31.8315C16.8357 31.7758 16.8409 31.7184 16.8514 31.6628C16.8635 31.6071 16.8792 31.5515 16.9019 31.4993C16.9227 31.4471 16.9506 31.3967 16.9819 31.3497C17.0133 31.301 17.0498 31.2576 17.0899 31.2176C17.2518 31.0558 17.4764 30.9619 17.7062 30.9619C17.9343 30.9619 18.1589 31.0558 18.3208 31.2176C18.4827 31.3793 18.575 31.6037 18.575 31.8315C18.575 32.0611 18.4827 32.2854 18.3208 32.4471C18.1589 32.6089 17.9343 32.7011 17.7062 32.7011Z" fill="#400D1D"/>
<path fill-rule="evenodd" clip-rule="evenodd" d="M17.4125 37.5481C16.932 37.5238 16.5629 37.1151 16.5873 36.6351C16.6116 36.1551 17.0225 35.7864 17.5013 35.8107C17.9818 35.8351 18.3509 36.2455 18.3265 36.7238C18.3022 37.1881 17.9174 37.5499 17.4578 37.5499C17.4421 37.5499 17.4282 37.5481 17.4125 37.5481ZM17.1635 42.3951C16.683 42.3706 16.3139 41.9621 16.3383 41.4821C16.3644 41.0038 16.7718 40.6334 17.2523 40.6594C17.7329 40.6838 18.102 41.0925 18.0776 41.5725C18.0549 42.0369 17.6702 42.3969 17.2088 42.3969C17.1931 42.3969 17.1792 42.3969 17.1635 42.3951ZM16.9146 47.2439C16.4358 47.2195 16.0649 46.8108 16.0911 46.3308C16.1154 45.8508 16.5246 45.4821 17.0034 45.5064C17.4839 45.5308 17.853 45.9395 17.8286 46.4195C17.8042 46.8838 17.4212 47.2439 16.9616 47.2439H16.9146ZM16.6656 52.0909C16.1868 52.0663 15.816 51.6578 15.8421 51.1778C15.8665 50.6978 16.2756 50.3291 16.7561 50.3552C17.2349 50.3795 17.6058 50.7882 17.5796 51.2682C17.557 51.7326 17.1722 52.0926 16.7109 52.0926C16.6969 52.0926 16.6813 52.0926 16.6656 52.0909ZM16.4166 56.9396C15.9379 56.9135 15.5688 56.5048 15.5931 56.0265C15.6175 55.5465 16.0266 55.1778 16.5072 55.2022C16.9877 55.2265 17.3568 55.6352 17.3307 56.1152C17.308 56.5796 16.9233 56.9396 16.4619 56.9396H16.4166ZM16.1694 61.7866C15.6889 61.7621 15.3198 61.3535 15.3442 60.8735C15.3685 60.3935 15.7777 60.0248 16.2582 60.0492C16.7387 60.0753 17.1078 60.4822 17.0835 60.9622C17.0591 61.4266 16.6743 61.7883 16.2147 61.7883C16.199 61.7883 16.1833 61.7866 16.1694 61.7866Z" fill="#400D1D"/>
<path fill-rule="evenodd" clip-rule="evenodd" d="M11.526 32.7011C11.2962 32.7011 11.0734 32.6089 10.9114 32.4471C10.7478 32.2854 10.6555 32.0611 10.6555 31.8315C10.6555 31.6037 10.7478 31.3793 10.9114 31.2176C11.0716 31.0558 11.2962 30.9619 11.526 30.9619C11.7559 30.9619 11.9804 31.0558 12.1424 31.2176C12.3043 31.3793 12.3966 31.6037 12.3966 31.8315C12.3966 32.0611 12.3043 32.2854 12.1424 32.4471C12.1006 32.4873 12.057 32.5237 12.01 32.555C11.9613 32.5863 11.9108 32.6124 11.8586 32.635C11.8063 32.6558 11.7524 32.6732 11.6967 32.6837C11.6409 32.6958 11.5835 32.7011 11.526 32.7011Z" fill="#400D1D"/>
<path fill-rule="evenodd" clip-rule="evenodd" d="M10.8399 37.4229C10.3629 37.3638 10.0234 36.9308 10.0808 36.4542C10.14 35.9775 10.5735 35.6384 11.0506 35.6958C11.5294 35.7551 11.8689 36.1899 11.8097 36.6662C11.7557 37.1064 11.3814 37.4299 10.9461 37.4299C10.9113 37.4299 10.8747 37.428 10.8399 37.4229ZM10.2602 42.1515C9.78137 42.0925 9.44361 41.6593 9.50106 41.181C9.56026 40.7047 9.99377 40.3656 10.4708 40.4247C10.9479 40.4838 11.2874 40.9169 11.2299 41.3934C11.1759 41.8332 10.7999 42.1569 10.3664 42.1569C10.3315 42.1569 10.295 42.1551 10.2602 42.1515ZM9.67865 46.8787C9.2016 46.8213 8.8621 46.3865 8.9213 45.91C8.97875 45.4334 9.41401 45.0941 9.89105 45.1533C10.3681 45.2106 10.7076 45.6454 10.6484 46.1221C10.5944 46.5621 10.2201 46.8856 9.78659 46.8856C9.75003 46.8856 9.71521 46.8837 9.67865 46.8787ZM9.09888 51.6074C8.62184 51.5483 8.28234 51.115 8.33979 50.6385C8.39899 50.1622 8.8325 49.823 9.30955 49.8804C9.78833 49.9396 10.1278 50.3726 10.0686 50.849C10.0147 51.2907 9.6386 51.6144 9.20683 51.6144C9.17026 51.6144 9.13544 51.6109 9.09888 51.6074ZM8.51912 56.3361C8.04033 56.277 7.70257 55.8422 7.76003 55.3657C7.81922 54.8892 8.25274 54.5499 8.72978 54.609C9.20683 54.6683 9.54633 55.1012 9.48887 55.5779C9.4349 56.0179 9.05884 56.3412 8.62532 56.3412C8.5905 56.3412 8.55394 56.3396 8.51912 56.3361Z" fill="#400D1D"/>
<path fill-rule="evenodd" clip-rule="evenodd" d="M8.04386 61.0698C7.9864 61.0698 7.93069 61.0645 7.87323 61.0524C7.81752 61.0419 7.76355 61.0245 7.71132 61.0037C7.65909 60.9811 7.6086 60.955 7.55985 60.9237C7.51284 60.8922 7.46757 60.8558 7.42753 60.8158C7.38749 60.7758 7.35093 60.7306 7.31959 60.6837C7.28825 60.6367 7.26213 60.5845 7.2395 60.5324C7.21861 60.4802 7.2012 60.4263 7.19075 60.3705C7.17856 60.315 7.17334 60.2576 7.17334 60.2002C7.17334 60.1445 7.17856 60.0871 7.19075 60.0298C7.2012 59.9741 7.21861 59.9202 7.2395 59.868C7.26213 59.8158 7.28825 59.7654 7.31959 59.7167C7.35093 59.6698 7.38749 59.6263 7.42753 59.5863C7.46757 59.5444 7.51284 59.508 7.55985 59.4767C7.6086 59.4454 7.65909 59.4193 7.71132 59.3967C7.76355 59.3758 7.81752 59.3584 7.87323 59.348C7.9864 59.3254 8.10131 59.3254 8.21448 59.348C8.27019 59.3584 8.32416 59.3758 8.37639 59.3967C8.42862 59.4193 8.47911 59.4454 8.52786 59.4767C8.57487 59.508 8.62014 59.5444 8.66018 59.5863C8.70023 59.6263 8.73679 59.6698 8.76813 59.7167C8.79946 59.7654 8.82558 59.8158 8.84821 59.868C8.86911 59.9202 8.88652 59.9741 8.89696 60.0298C8.90915 60.0871 8.91437 60.1445 8.91437 60.2002C8.91437 60.2576 8.90915 60.315 8.89696 60.3705C8.88652 60.4263 8.86911 60.4802 8.84821 60.5324C8.82558 60.5845 8.79946 60.635 8.76813 60.6837C8.73679 60.7306 8.70023 60.7758 8.66018 60.8158C8.62014 60.8558 8.57487 60.8922 8.52786 60.9237C8.47911 60.955 8.42862 60.9811 8.37639 61.0037C8.32416 61.0245 8.27019 61.0419 8.21448 61.0524C8.15876 61.0645 8.10131 61.0698 8.04386 61.0698Z" fill="#400D1D"/>
</g>
<path fill-rule="evenodd" clip-rule="evenodd" d="M11.0589 18.1729L3.63452 26.6536H42.4037L36.393 18.1729H11.0589ZM11.3549 18.7527H36.0577L41.2458 26.0737H4.94532L11.3549 18.7527Z" fill="#1F2940"/>
</svg>
