<svg width="53" height="49" viewBox="0 0 53 49" fill="none" xmlns="http://www.w3.org/2000/svg">
<path fill-rule="evenodd" clip-rule="evenodd" d="M48.1461 37.9067C48.1461 38.9461 48.0106 39.1584 43.036 39.1658V30.6963C43.036 21.3907 35.6396 13.7007 26.4131 13.6472C17.1484 13.5938 9.59447 21.1784 9.59447 30.5107V39.1658C4.56536 39.1629 4.57714 39.0114 4.57714 37.9676C4.57714 37.9676 4.57567 37.9616 4.57272 37.9542V22.9498L4.56978 22.9468C4.57272 12.9167 12.8275 4.99355 24.988 4.53027C25.0484 4.52879 25.1058 4.52433 25.1647 4.52285C25.4076 4.51394 25.6549 4.51245 25.9008 4.50948C26.0539 4.508 26.2056 4.50355 26.3601 4.50355C26.5133 4.50355 26.6649 4.508 26.818 4.50948C27.0639 4.51245 27.3112 4.51394 27.5541 4.52285C27.613 4.52433 27.6719 4.52879 27.7308 4.53027C39.7986 4.98909 48.018 12.8142 48.1461 22.7182V37.9067ZM47.3967 48.8337H43.6278C43.2171 48.8337 42.8858 48.4937 42.8947 48.0794C42.9374 46.2055 43.0389 41.4985 43.0389 41.4985C43.0463 41.1362 43.3334 40.8467 43.6897 40.8333C48.0254 40.8586 48.1461 41.0976 48.1461 42.091L48.1299 48.0972C48.1284 48.5041 47.8001 48.8337 47.3967 48.8337ZM35.2008 34.0327H42.2837V38.0849C42.2837 38.6818 41.8038 39.1658 41.2104 39.1658H35.1994C34.8298 39.1658 34.531 38.8644 34.531 38.4932V34.7083C34.531 34.3356 34.8313 34.0327 35.2008 34.0327ZM34.531 25.1073V19.7292C36.9454 21.1962 39.1022 23.2884 40.4655 25.7829H35.2008C34.8313 25.7829 34.531 25.48 34.531 25.1073ZM35.2008 26.2566H40.7128C41.7198 28.3651 42.2837 31.0422 42.2837 33.5338V33.5591H35.2008C34.8313 33.5591 34.531 33.2562 34.531 32.8835V26.9322C34.531 26.5595 34.8313 26.2566 35.2008 26.2566ZM27.3539 34.0327H33.3915C33.761 34.0327 34.0613 34.3356 34.0613 34.7083V38.4932C34.0613 38.8629 33.7595 39.1658 33.3929 39.1658H27.6189C27.2494 39.1658 26.9505 38.8644 26.9505 38.4932V34.4381C26.9505 34.2139 27.1301 34.0327 27.3539 34.0327ZM26.9505 25.3761V18.8234C26.9505 18.0662 27.6101 17.4767 28.3535 17.5806C30.2203 17.8405 32.4566 18.5175 34.0613 19.3728V25.1073C34.0613 25.48 33.761 25.7829 33.3915 25.7829H27.3539C27.1301 25.7829 26.9505 25.6003 26.9505 25.3761ZM27.3539 26.2566H33.3915C33.761 26.2566 34.0613 26.5595 34.0613 26.9322V32.8835C34.0613 33.2562 33.761 33.5591 33.3915 33.5591H27.3539C27.1301 33.5591 26.9505 33.3764 26.9505 33.1522V26.6619C26.9505 26.4377 27.1301 26.2566 27.3539 26.2566ZM19.585 34.0327H25.7786C26.0024 34.0327 26.182 34.2139 26.182 34.4381V38.4932C26.182 38.8644 25.8831 39.1658 25.5136 39.1658H19.5835C19.214 39.1658 18.9151 38.8644 18.9151 38.4932V34.7083C18.9151 34.3356 19.2154 34.0327 19.585 34.0327ZM18.9151 25.1073V19.1041C20.5346 18.2918 22.9357 17.7484 24.8055 17.5331C25.5401 17.4485 26.182 18.0335 26.182 18.7789V25.3761C26.182 25.6003 26.0024 25.7829 25.7786 25.7829H19.585C19.2154 25.7829 18.9151 25.48 18.9151 25.1073ZM19.585 26.2566H25.7786C26.0024 26.2566 26.182 26.4377 26.182 26.6619V33.1522C26.182 33.3764 26.0024 33.5591 25.7786 33.5591H19.585C19.2154 33.5591 18.9151 33.2562 18.9151 32.8835V26.9322C18.9151 26.5595 19.2154 26.2566 19.585 26.2566ZM17.7756 34.0327C18.1451 34.0327 18.4455 34.3356 18.4455 34.7083V38.4932C18.4455 38.8644 18.1451 39.1658 17.7771 39.1658H11.42C10.8267 39.1658 10.3468 38.6818 10.3468 38.0849V34.0327H17.7756ZM12.3225 25.7829C13.7506 23.1696 15.8764 20.8413 18.4455 19.3669V25.1073C18.4455 25.48 18.1451 25.7829 17.7756 25.7829H12.3225ZM17.7756 26.2566C18.1451 26.2566 18.4455 26.5595 18.4455 26.9322V32.8835C18.4455 33.2562 18.1451 33.5591 17.7756 33.5591H10.3468V33.5338C10.3468 31.0422 11.0682 28.3651 12.0737 26.2566H17.7756ZM37.0706 48.8337C36.6598 48.8337 36.33 48.4937 36.3389 48.0794C36.3801 46.2055 36.4817 41.4985 36.4817 41.4985C36.4905 41.1273 36.7908 40.8304 37.1574 40.8304L35.0197 40.8318C35.3937 40.8318 35.697 41.1362 35.697 41.5134C35.697 41.5134 35.6984 46.2352 35.7014 48.0942C35.7014 48.5026 35.3731 48.8337 34.9682 48.8337H31.4894C31.2023 48.8337 30.8754 48.8337 30.5147 48.8322C30.104 48.8322 29.7727 48.4907 29.7816 48.0779C29.8243 46.2055 29.9259 41.4985 29.9259 41.4985C29.9332 41.1273 30.2336 40.8304 30.6016 40.8304L28.4625 40.8318C28.8364 40.8318 29.1412 41.1362 29.1412 41.5134C29.1412 41.5134 29.1426 46.2308 29.1441 48.0898C29.1441 48.4981 28.8158 48.8292 28.4109 48.8292C27.1051 48.8263 25.5858 48.8233 23.9604 48.8203C23.5482 48.8203 23.2169 48.4788 23.2272 48.0645C23.267 46.1951 23.3686 41.4985 23.3686 41.4985C23.3774 41.1273 23.6777 40.8304 24.0443 40.8304L21.9067 40.8318C22.2806 40.8318 22.5839 41.1362 22.5839 41.5134C22.5839 41.5134 22.5854 46.2204 22.5868 48.0764C22.5868 48.4862 22.2571 48.8174 21.8522 48.8159C20.3932 48.8144 18.8886 48.8114 17.4031 48.8085C16.9924 48.807 16.6626 48.4669 16.6714 48.0527C16.7112 46.1862 16.8128 41.4985 16.8128 41.4985C16.8201 41.1273 17.1205 40.8304 17.4885 40.8304L15.3494 40.8318C15.7233 40.8318 16.0266 41.1362 16.0266 41.5134C16.0266 41.5134 16.0281 46.21 16.0296 48.0645C16.0296 48.4744 15.7012 48.8055 15.2949 48.804C13.8286 48.801 11.9603 48.7966 10.9416 48.7936C10.5308 48.7921 10.201 48.4521 10.2113 48.0378L10.3497 41.4971C10.3586 41.1273 10.6589 40.8304 11.0255 40.8304H11.0549H17.4885H17.5165H23.9162H24.0443H30.4456H30.6016H30.6296H37.1574H37.1589H37.1869H42.7607C42.8785 40.8304 42.9904 40.8304 43.1037 40.8304L41.5756 40.8318C41.9495 40.8318 42.2542 41.1362 42.2542 41.5134C42.2542 41.5134 42.2557 46.2352 42.2572 48.0942C42.2572 48.5026 41.9289 48.8337 41.524 48.8337H37.0706ZM4.57272 48.1032V42.1459C4.57272 41.1526 4.56389 40.8645 8.904 40.8333C9.27058 40.8408 9.56503 41.1422 9.56503 41.5134C9.56503 41.5134 9.56503 46.1996 9.5665 48.0527C9.5665 48.461 9.23672 48.7921 8.83039 48.7921C7.25806 48.7892 6.01697 48.7862 5.30147 48.7847C4.92017 48.7847 4.60364 48.4877 4.57272 48.1032ZM52.7527 48.9762C52.7188 48.8931 52.6393 48.8337 52.5451 48.8337H51.1597C49.2812 48.804 48.8513 48.2858 48.7688 40.5854V22.0634L48.7629 22.0663V22.0634C48.7629 22.047 48.7688 22.0322 48.7688 22.0158C48.7659 21.9371 48.7585 21.857 48.7556 21.7783C48.4935 11.0666 40.5406 1.71203 29.4503 0.215303C28.4551 0.0772121 27.4363 0 26.3925 0C26.3822 0 26.3704 0.00148485 26.3601 0.00148485C26.3484 0.00148485 26.3381 0 26.3263 0C25.2839 0 24.2652 0.0772121 23.2685 0.215303C12.1782 1.71203 4.22528 11.0666 3.96322 21.7783C3.96028 21.857 3.95292 21.9371 3.94997 22.0158C3.94997 22.0322 3.95586 22.047 3.95586 22.0634C3.95586 22.1495 3.94997 22.2356 3.94997 22.3217L3.98089 22.3084C3.98383 22.3084 3.98531 22.3054 3.98825 22.3054C3.99561 22.3336 4.00592 22.3603 4.01622 22.3885L3.94997 22.3217V43.2566C3.78361 48.4135 3.24478 48.807 1.61208 48.8337H0.223778C0.100111 48.8337 0 48.9361 0 49.0609C0 49.0638 0 49.0668 0 49.0698C0.00588889 49.1915 0.103056 49.2866 0.223778 49.2866H0.297389H0.379833H52.3964H52.4744H52.5451C52.6364 49.2866 52.7159 49.2301 52.7497 49.1515C52.7792 49.095 52.7792 49.0312 52.7527 48.9762Z" fill="#1F2840"/>
</svg>
