<?xml version="1.0" encoding="UTF-8"?><svg id="Red" xmlns="http://www.w3.org/2000/svg" width="297mm" height="235.34mm" xmlns:xlink="http://www.w3.org/1999/xlink" viewBox="0 0 841.89 667.1"><defs><style>.cls-1{fill:none;}.cls-2{clip-path:url(#clippath);}.cls-3{fill:#fff;}.cls-4{fill:#d64351;}</style><clipPath id="clippath"><rect class="cls-1" width="841.89" height="667.1"/></clipPath></defs><g class="cls-2"><g><g id="Amenity"><circle class="cls-4" cx="265.39" cy="329.45" r="7.6"/></g><path class="cls-3" d="M266.08,331.48h-3.36s0-.94,0-.94l2.7-3.81h1.63s.02,3.79,.02,3.79h.83s0,.95,0,.95h-.83s0,1.04,0,1.04h-.99s0-1.03,0-1.03Zm0-.96v-3.1h-.03l-2.24,3.11h2.27Z"/></g><g><circle class="cls-4" cx="459.63" cy="279.79" r="7.6"/><path class="cls-3" d="M458.2,280.59c.12,.86,.62,1.29,1.48,1.29,.81,0,1.27-.35,1.27-.95,0-.59-.37-.87-1.17-.87h-.72s0-.82,0-.82h.72c.66,0,1.04-.28,1.04-.75,0-.48-.45-.78-1.15-.78-.8,0-1.26,.36-1.39,1.06l-.98-.17c.09-.56,.35-1,.77-1.33,.42-.34,.96-.5,1.6-.51,1.24,0,2.11,.66,2.12,1.62,0,.49-.23,.87-.7,1.16v.02c.54,.27,.87,.78,.87,1.43,0,1.09-.89,1.82-2.25,1.83-.68,0-1.24-.18-1.68-.54-.43-.36-.69-.85-.77-1.48l.97-.21Z"/></g><g><circle class="cls-4" cx="353.75" cy="250.51" r="7.6"/><path class="cls-3" d="M354.05,248.95l-1.66,.98v-1.12s1.75-1.03,1.75-1.03h.9s.03,5.79,.03,5.79h-.99s-.02-4.62-.02-4.62Z"/></g><g><circle class="cls-4" cx="506.72" cy="438.87" r="7.6"/><path class="cls-3" d="M505.21,440.02c.23,.71,.8,1.06,1.57,1.05,.89,0,1.43-.46,1.43-1.14,0-.68-.56-1.14-1.44-1.14-.55,0-1.05,.2-1.48,.6l-.91-.26,.52-3.03,3.73-.02v.94s-2.96,.01-2.96,.01l-.22,1.29h.02c.4-.26,.88-.4,1.45-.4,1.34,0,2.3,.83,2.3,2.02,0,1.23-.95,2.06-2.41,2.06-1.3,0-2.21-.59-2.5-1.65l.93-.34Z"/></g><g><g id="Amenity-2"><circle class="cls-4" cx="477.54" cy="572.54" r="7.6"/></g><path class="cls-3" d="M476.11,572.41v-.02c-.5-.25-.77-.64-.77-1.13,0-.93,.91-1.58,2.17-1.59,1.26,0,2.19,.64,2.19,1.57,0,.48-.26,.88-.76,1.13v.02c.71,.27,1.13,.83,1.13,1.52,0,1.04-.99,1.81-2.53,1.81-1.54,0-2.53-.73-2.54-1.79,0-.69,.41-1.25,1.11-1.53Zm1.41,.52c-.9,0-1.45,.38-1.45,.93,0,.54,.53,.88,1.46,.87,.94,0,1.46-.36,1.46-.88,0-.56-.56-.92-1.47-.92Zm-.01-2.35c-.7,0-1.13,.3-1.13,.75,0,.46,.44,.73,1.14,.73,.71,0,1.14-.28,1.14-.74,0-.45-.44-.74-1.15-.74Z"/></g><g><g id="Amenity-3"><circle class="cls-4" cx="477.54" cy="477.86" r="7.6"/></g><path class="cls-3" d="M478.55,476.08v-.02h-3.31s0-.93,0-.93l4.47-.02v.86s-2.5,4.94-2.5,4.94h-1.14s2.48-4.84,2.48-4.84Z"/></g><g><g id="Amenity-4"><circle class="cls-4" cx="417.83" cy="477.86" r="7.6"/></g><path class="cls-3" d="M418.02,481.05c-1.66,0-2.68-1.1-2.68-2.95-.03-1.82,1.09-3.11,2.62-3.1,1.14,0,1.99,.59,2.27,1.58l-.94,.29c-.19-.61-.64-.94-1.29-.93-.94,0-1.54,.71-1.62,1.84h0c.35-.44,1-.7,1.75-.71,1.29,0,2.25,.84,2.26,1.98,0,1.16-.99,2-2.36,2Zm-.01-3.15c-.82,0-1.41,.47-1.41,1.12,0,.66,.59,1.09,1.42,1.09,.84,0,1.38-.42,1.38-1.1,0-.69-.52-1.11-1.39-1.11Z"/></g><g><circle class="cls-4" cx="371.92" cy="279.72" r="7.6"/><path class="cls-3" d="M374.15,281.67v.94s-4.52,.02-4.52,.02v-.77c0-.52,.12-.93,.38-1.25,.33-.41,.79-.68,1.65-.96,1.21-.41,1.56-.66,1.55-1.2,0-.48-.46-.82-1.14-.81-.86,0-1.4,.46-1.5,1.32l-.98-.09c.12-1.31,1.06-2.17,2.48-2.17,1.23,0,2.13,.75,2.13,1.76,0,.98-.54,1.5-1.99,1.98-.8,.27-1.17,.45-1.36,.67-.13,.16-.17,.28-.17,.59l3.46-.02Z"/></g></g></svg>