<?xml version="1.0" encoding="UTF-8"?><svg id="Green" xmlns="http://www.w3.org/2000/svg" width="297mm" height="235.34mm" xmlns:xlink="http://www.w3.org/1999/xlink" viewBox="0 0 841.89 667.1"><defs><style>.cls-1{fill:none;}.cls-2{clip-path:url(#clippath);}.cls-3{fill:#fff;}.cls-4{fill:#576c30;}</style><clipPath id="clippath"><rect class="cls-1" width="841.89" height="667.1"/></clipPath></defs><g class="cls-2"><g><circle class="cls-4" cx="286.65" cy="279.79" r="7.6"/><path class="cls-3" d="M286.82,283.19c-1.1,0-1.87-.56-2.16-1.53l.93-.31c.22,.65,.58,.9,1.23,.9,.77,0,1.22-.56,1.28-1.64-.36,.36-.86,.53-1.51,.53-1.32,0-2.22-.8-2.22-1.96,0-1.15,.96-2.02,2.31-2.03,1.56,0,2.45,1.02,2.46,2.78,0,2.14-.8,3.26-2.31,3.27Zm1.21-4.03c0-.6-.56-1.08-1.33-1.07-.81,0-1.33,.43-1.33,1.08,0,.68,.51,1.08,1.35,1.07,.8,0,1.32-.42,1.31-1.07Z"/></g><g><circle class="cls-4" cx="275.36" cy="231.01" r="7.6"/><path class="cls-3" d="M275.08,229.39l-1.66,.98v-1.12s1.75-1.03,1.75-1.03h.9s.03,5.79,.03,5.79h-.99s-.02-4.62-.02-4.62Z"/></g><g><circle class="cls-4" cx="286.62" cy="303.11" r="7.6"/><g><path class="cls-3" d="M283.79,301.62l-1.66,.98v-1.12s1.75-1.03,1.75-1.03h.9s.03,5.79,.03,5.79h-.99s-.02-4.62-.02-4.62Z"/><path class="cls-3" d="M288.43,300.3c1.54,0,2.65,1.21,2.66,3.01,0,1.8-1.1,3.03-2.63,3.04s-2.65-1.21-2.66-3.01c0-1.8,1.1-3.03,2.63-3.04Zm0,.95c-1,0-1.65,.78-1.65,2.09s.66,2.07,1.66,2.07,1.65-.78,1.65-2.08-.67-2.08-1.66-2.07Z"/></g></g><g><circle class="cls-4" cx="292.05" cy="250.51" r="7.6"/><path class="cls-3" d="M294.28,252.56v.94s-4.52,.02-4.52,.02v-.77c0-.52,.12-.93,.38-1.25,.33-.41,.79-.68,1.65-.96,1.21-.41,1.56-.66,1.55-1.2,0-.48-.46-.82-1.14-.81-.86,0-1.4,.46-1.5,1.32l-.98-.09c.12-1.31,1.06-2.17,2.48-2.18,1.23,0,2.13,.75,2.13,1.76,0,.98-.54,1.5-1.99,1.97-.8,.27-1.17,.45-1.36,.67-.13,.16-.17,.28-.17,.59l3.46-.02Z"/></g><g><circle class="cls-4" cx="334.07" cy="250.51" r="7.6"/><path class="cls-3" d="M334.4,252.25l-3.36,.02v-.96s2.7-3.81,2.7-3.81h1.63s.02,3.79,.02,3.79h.83s0,.95,0,.95h-.83s0,1.04,0,1.04h-.99s0-1.03,0-1.03Zm0-.96v-3.1s-.03,0-.03,0l-2.24,3.11h2.27Z"/></g><g><circle class="cls-4" cx="313.06" cy="250.51" r="7.6"/><path class="cls-3" d="M311.75,251.41c.12,.86,.62,1.29,1.48,1.29,.81,0,1.27-.35,1.27-.95,0-.59-.37-.87-1.17-.87h-.72s0-.82,0-.82h.72c.66,0,1.04-.28,1.04-.75,0-.48-.45-.78-1.15-.78-.8,0-1.26,.36-1.39,1.06l-.98-.17c.09-.56,.35-1,.77-1.33,.42-.34,.96-.5,1.6-.51,1.24,0,2.11,.66,2.12,1.62,0,.49-.23,.87-.7,1.16v.02c.54,.27,.87,.78,.87,1.43,0,1.1-.89,1.82-2.25,1.83-.68,0-1.24-.18-1.68-.54-.43-.36-.69-.85-.77-1.48l.97-.21Z"/></g><g><circle class="cls-4" cx="559.62" cy="279.79" r="7.6"/><g><path class="cls-3" d="M557.04,278.42l-1.66,.98v-1.12s1.75-1.03,1.75-1.03h.9s.03,5.79,.03,5.79h-.99s-.02-4.62-.02-4.62Z"/><path class="cls-3" d="M561.73,283.15c-1.66,0-2.68-1.1-2.68-2.95-.03-1.82,1.09-3.11,2.62-3.1,1.14,0,1.98,.59,2.27,1.58l-.94,.29c-.19-.61-.64-.94-1.29-.93-.94,0-1.54,.71-1.62,1.84h0c.35-.44,1-.7,1.75-.71,1.29,0,2.25,.84,2.26,1.98,0,1.16-.99,2-2.36,2Zm-.01-3.15c-.82,0-1.41,.47-1.41,1.12,0,.66,.59,1.09,1.42,1.09,.84,0,1.38-.42,1.38-1.1,0-.69-.52-1.11-1.39-1.11Z"/></g></g><g><circle class="cls-4" cx="572.58" cy="250.51" r="7.6"/><path class="cls-3" d="M573.84,248.67v-.02h-3.31s0-.93,0-.93l4.47-.02v.86s-2.5,4.94-2.5,4.94h-1.14s2.48-4.84,2.48-4.84Z"/></g><g><circle class="cls-4" cx="476.89" cy="279.79" r="7.6"/><g><path class="cls-3" d="M474.22,278.2l-1.66,.98v-1.12s1.75-1.03,1.75-1.03h.9s.03,5.79,.03,5.79h-.99s-.02-4.62-.02-4.62Z"/><path class="cls-3" d="M479.35,281.77h-3.36s0-.94,0-.94l2.7-3.81h1.63s.02,3.79,.02,3.79h.83s0,.95,0,.95h-.83s0,1.04,0,1.04h-.99s0-1.03,0-1.03Zm0-.96v-3.1h-.03l-2.24,3.11h2.27Z"/></g></g><g><circle class="cls-4" cx="418.38" cy="250.51" r="7.6"/><path class="cls-3" d="M416.86,251.42c.23,.71,.8,1.06,1.57,1.05,.89,0,1.43-.46,1.43-1.14,0-.68-.56-1.14-1.44-1.14-.55,0-1.05,.2-1.48,.6l-.91-.26,.52-3.03,3.73-.02v.94s-2.96,.01-2.96,.01l-.22,1.29h.02c.4-.26,.88-.4,1.45-.4,1.34,0,2.3,.83,2.3,2.02,0,1.23-.95,2.06-2.41,2.06-1.3,0-2.21-.59-2.5-1.65l.93-.34Z"/></g><g><circle class="cls-4" cx="515.19" cy="250.51" r="7.6"/><path class="cls-3" d="M515.28,253.7c-1.66,0-2.68-1.1-2.68-2.95-.03-1.82,1.09-3.11,2.62-3.1,1.14,0,1.99,.59,2.27,1.58l-.94,.29c-.19-.61-.64-.94-1.29-.93-.94,0-1.54,.71-1.62,1.84h0c.35-.44,1-.7,1.75-.71,1.29,0,2.25,.84,2.26,1.98,0,1.16-.99,2-2.36,2Zm-.01-3.15c-.82,0-1.41,.47-1.41,1.12,0,.66,.59,1.09,1.42,1.09,.84,0,1.38-.42,1.38-1.1,0-.69-.52-1.11-1.39-1.11Z"/></g><g><circle class="cls-4" cx="389.11" cy="279.79" r="7.6"/><g><path class="cls-3" d="M386.5,278.43l-1.66,.98v-1.12s1.75-1.03,1.75-1.03h.9s.03,5.79,.03,5.79h-.99s-.02-4.62-.02-4.62Z"/><path class="cls-3" d="M392.99,282.08v.94s-4.52,.02-4.52,.02v-.77c0-.52,.12-.93,.38-1.25,.33-.41,.79-.68,1.65-.96,1.21-.41,1.56-.66,1.55-1.2,0-.48-.46-.82-1.14-.81-.86,0-1.4,.46-1.5,1.32l-.98-.09c.12-1.31,1.06-2.17,2.48-2.17,1.23,0,2.13,.75,2.13,1.76,0,.98-.54,1.5-1.99,1.97-.8,.27-1.17,.45-1.36,.67-.13,.16-.17,.28-.17,.59l3.46-.02Z"/></g></g><g><circle class="cls-4" cx="265.39" cy="293.1" r="7.6"/><path class="cls-3" d="M263.96,292.87v-.02c-.51-.25-.77-.64-.77-1.13,0-.93,.91-1.58,2.17-1.59,1.26,0,2.19,.64,2.19,1.57,0,.48-.26,.88-.76,1.13v.02c.71,.27,1.13,.83,1.13,1.52,0,1.04-.99,1.81-2.53,1.81-1.54,0-2.53-.73-2.53-1.79,0-.69,.41-1.25,1.11-1.53Zm1.41,.52c-.9,0-1.45,.38-1.45,.93,0,.54,.53,.88,1.46,.87,.94,0,1.46-.36,1.46-.89,0-.56-.56-.92-1.47-.92Zm-.01-2.35c-.7,0-1.13,.3-1.13,.75,0,.46,.44,.73,1.14,.73,.71,0,1.14-.28,1.14-.74,0-.45-.44-.74-1.15-.74Z"/></g><g><circle class="cls-4" cx="506.72" cy="457.09" r="7.6"/><g><path class="cls-3" d="M506.11,459.14v.94s-4.52,.02-4.52,.02v-.77c0-.52,.12-.93,.38-1.25,.33-.41,.79-.68,1.65-.96,1.21-.41,1.56-.66,1.55-1.2,0-.48-.46-.82-1.14-.81-.86,0-1.4,.46-1.5,1.32l-.98-.09c.12-1.31,1.06-2.17,2.48-2.17,1.23,0,2.13,.75,2.13,1.76,0,.98-.54,1.5-1.99,1.97-.8,.27-1.17,.45-1.36,.67-.13,.16-.17,.28-.17,.59l3.46-.02Z"/><path class="cls-3" d="M509.23,454.14c1.54,0,2.65,1.21,2.66,3.01,0,1.8-1.1,3.03-2.63,3.04-1.53,0-2.65-1.21-2.66-3.01,0-1.8,1.1-3.03,2.63-3.04Zm0,.95c-1,0-1.65,.78-1.65,2.09,0,1.3,.66,2.07,1.66,2.07,1,0,1.65-.78,1.65-2.08,0-1.3-.67-2.08-1.66-2.07Z"/></g></g><g><circle class="cls-4" cx="423.78" cy="279.79" r="7.6"/><g><path class="cls-3" d="M421.15,278.43l-1.66,.98v-1.12s1.75-1.03,1.75-1.03h.9s.03,5.79,.03,5.79h-.99s-.02-4.62-.02-4.62Z"/><path class="cls-3" d="M424,280.93c.12,.86,.62,1.29,1.48,1.29,.81,0,1.27-.35,1.27-.95,0-.59-.37-.87-1.17-.87h-.72s0-.82,0-.82h.72c.66,0,1.04-.28,1.04-.75,0-.48-.45-.78-1.15-.78-.8,0-1.26,.36-1.39,1.06l-.98-.17c.09-.56,.35-1,.77-1.33,.42-.34,.96-.5,1.6-.51,1.24,0,2.11,.66,2.12,1.62,0,.49-.23,.87-.7,1.16v.02c.54,.27,.87,.78,.87,1.43,0,1.09-.89,1.82-2.25,1.83-.68,0-1.24-.18-1.68-.54-.43-.36-.69-.85-.77-1.48l.97-.21Z"/></g></g><g><circle class="cls-4" cx="477.86" cy="324.22" r="7.6"/><g><path class="cls-3" d="M475.21,322.64l-1.66,.98v-1.12s1.75-1.03,1.75-1.03h.9s.03,5.79,.03,5.79h-.99s-.02-4.62-.02-4.62Z"/><path class="cls-3" d="M478.2,324.05v-.02c-.51-.25-.77-.64-.77-1.13,0-.93,.91-1.58,2.17-1.59,1.26,0,2.19,.64,2.19,1.57,0,.48-.26,.88-.76,1.13v.02c.71,.27,1.13,.83,1.13,1.52,0,1.04-.99,1.81-2.53,1.81-1.54,0-2.53-.73-2.53-1.79,0-.69,.41-1.25,1.11-1.53Zm1.41,.52c-.9,0-1.45,.38-1.45,.93,0,.54,.53,.88,1.46,.87,.94,0,1.46-.36,1.46-.89,0-.56-.56-.92-1.47-.92Zm-.01-2.35c-.7,0-1.13,.3-1.13,.75,0,.46,.44,.73,1.14,.73,.71,0,1.14-.28,1.14-.74,0-.45-.44-.74-1.15-.74Z"/></g></g><g><circle class="cls-4" cx="506.62" cy="286.51" r="7.6"/><g><path class="cls-3" d="M503.94,284.93l-1.66,.98v-1.12s1.75-1.03,1.75-1.03h.9s.03,5.79,.03,5.79h-.99s-.02-4.62-.02-4.62Z"/><path class="cls-3" d="M506.88,287.66c.23,.71,.8,1.06,1.57,1.05,.89,0,1.43-.45,1.43-1.14,0-.68-.56-1.14-1.44-1.14-.55,0-1.05,.2-1.48,.6l-.91-.26,.52-3.03,3.73-.02v.94s-2.96,.01-2.96,.01l-.22,1.29h.02c.4-.26,.88-.4,1.45-.4,1.34,0,2.3,.83,2.3,2.02,0,1.23-.95,2.06-2.41,2.06-1.3,0-2.21-.59-2.5-1.65l.93-.34Z"/></g></g><g><circle class="cls-4" cx="506.72" cy="324.22" r="7.6"/><g><path class="cls-3" d="M504.13,322.64l-1.66,.98v-1.12s1.75-1.03,1.75-1.03h.9s.03,5.79,.03,5.79h-.99s-.02-4.62-.02-4.62Z"/><path class="cls-3" d="M508.5,327.37c-1.1,0-1.87-.56-2.16-1.53l.93-.31c.22,.65,.58,.9,1.23,.9,.77,0,1.22-.57,1.28-1.64-.36,.35-.86,.53-1.51,.53-1.32,0-2.22-.8-2.22-1.96,0-1.15,.96-2.02,2.31-2.03,1.56,0,2.45,1.02,2.46,2.78,0,2.14-.8,3.26-2.31,3.27Zm1.21-4.03c0-.6-.56-1.08-1.33-1.07-.81,0-1.33,.43-1.33,1.08,0,.68,.51,1.08,1.35,1.07,.8,0,1.32-.42,1.31-1.07Z"/></g></g><g><circle class="cls-4" cx="584.45" cy="279.79" r="7.6"/><g><path class="cls-3" d="M582.38,278.42l-1.66,.98v-1.12s1.75-1.03,1.75-1.03h.9s.03,5.79,.03,5.79h-.99s-.02-4.62-.02-4.62Z"/><path class="cls-3" d="M587.26,278.18v-.02s-3.31,.01-3.31,.01v-.94s4.47-.02,4.47-.02v.86s-2.5,4.94-2.5,4.94h-1.14s2.48-4.84,2.48-4.84Z"/></g></g><g><circle class="cls-4" cx="506.72" cy="536.57" r="7.6"/><g><path class="cls-3" d="M507.17,538.61v.94s-4.52,.02-4.52,.02v-.77c0-.52,.12-.93,.38-1.25,.33-.41,.79-.68,1.65-.96,1.21-.41,1.56-.66,1.55-1.2,0-.48-.46-.82-1.14-.81-.86,0-1.4,.46-1.5,1.32l-.98-.09c.12-1.31,1.06-2.17,2.48-2.18,1.23,0,2.13,.75,2.13,1.76,0,.98-.54,1.5-1.99,1.97-.8,.27-1.17,.45-1.36,.67-.13,.16-.17,.28-.17,.59l3.46-.02Z"/><path class="cls-3" d="M509.39,534.92l-1.66,.98v-1.12s1.75-1.03,1.75-1.03h.9s.03,5.79,.03,5.79h-.99s-.02-4.62-.02-4.62Z"/></g></g><g><circle class="cls-4" cx="334.31" cy="279.79" r="7.6"/><g><path class="cls-3" d="M332.58,278.42l-1.66,.98v-1.12s1.75-1.03,1.75-1.03h.9s.03,5.79,.03,5.79h-.99s-.02-4.62-.02-4.62Z"/><path class="cls-3" d="M336.03,278.41l-1.66,.98v-1.12s1.75-1.03,1.75-1.03h.9s.03,5.79,.03,5.79h-.99s-.02-4.62-.02-4.62Z"/></g></g></g></svg>